{"glyphs":{"0":{"ha":1035,"x_min":23,"x_max":1012,"o":"m 517 -25 q 152 106 280 -25 q 23 486 23 238 q 152 866 23 734 q 517 998 280 998 q 883 866 755 998 q 1012 486 1012 734 q 883 106 1012 238 q 517 -25 755 -25 m 517 244 q 650 306 605 244 q 696 486 696 368 q 650 666 696 604 q 517 728 605 728 q 384 666 429 728 q 339 486 339 604 q 384 306 339 368 q 517 244 429 244 z "},"1":{"ha":885,"x_min":46,"x_max":839,"o":"m 839 243 l 839 0 l 46 0 l 46 243 l 313 243 l 313 666 q 204 613 265 626 q 69 600 144 600 l 69 868 q 313 972 203 868 l 633 972 l 633 243 l 839 243 z "},"2":{"ha":944,"x_min":29,"x_max":916,"o":"m 916 682 q 873 525 916 586 q 769 433 830 465 q 610 367 707 402 q 474 309 522 334 q 404 243 426 284 l 912 243 l 912 0 l 29 0 l 29 145 q 87 342 29 265 q 224 460 145 419 q 420 543 303 501 q 521 583 486 567 q 580 619 557 598 q 603 666 603 639 q 490 743 603 743 q 351 638 348 743 l 38 638 q 149 906 38 815 q 476 998 259 998 q 801 917 686 998 q 916 682 916 837 z "},"3":{"ha":980,"x_min":28,"x_max":951,"o":"m 478 -25 q 137 58 247 -25 q 29 325 28 141 l 316 325 q 358 248 319 270 q 471 227 397 227 q 592 248 550 227 q 634 308 634 269 q 600 372 634 341 q 466 403 565 403 l 413 403 l 413 583 l 466 583 q 597 610 564 583 q 631 668 631 637 q 591 726 631 707 q 485 745 552 745 q 374 722 413 745 q 336 644 336 698 l 51 644 q 160 911 50 824 q 487 998 271 998 q 810 924 699 998 q 920 723 920 851 q 883 598 920 647 q 781 517 846 549 l 781 501 q 905 418 858 478 q 951 269 951 359 q 895 111 951 177 q 731 9 838 44 q 478 -25 624 -25 z "},"4":{"ha":1059,"x_min":41,"x_max":1024,"o":"m 1024 407 l 1024 164 l 877 164 l 877 0 l 557 0 l 557 164 l 41 164 l 41 407 l 501 972 l 877 972 l 877 407 l 1024 407 m 557 407 l 557 700 l 318 407 l 557 407 z "},"5":{"ha":955,"x_min":31,"x_max":926,"o":"m 468 -25 q 139 60 247 -25 q 35 318 31 146 l 319 318 q 366 247 328 270 q 465 225 405 225 q 586 259 546 225 q 626 346 626 294 q 589 431 626 399 q 476 463 551 463 q 383 445 417 463 q 326 400 350 427 l 44 400 l 154 972 l 844 972 l 844 730 l 391 730 l 363 598 q 442 632 391 618 q 569 646 493 646 q 749 611 668 646 q 878 503 830 575 q 926 329 926 432 q 808 68 926 162 q 468 -25 691 -25 z "},"6":{"ha":951,"x_min":23,"x_max":928,"o":"m 539 623 q 820 546 712 623 q 928 313 928 469 q 878 134 928 209 q 729 16 829 58 q 485 -25 630 -25 q 127 115 230 -25 q 23 491 23 255 q 154 877 23 757 q 497 998 285 998 q 803 916 692 998 q 909 674 913 834 l 654 674 q 601 739 645 719 q 497 759 558 759 q 370 721 420 759 q 324 583 321 683 q 539 623 397 623 m 481 211 q 598 241 557 211 q 640 321 640 272 q 599 399 640 370 q 481 428 558 428 q 366 400 405 428 q 326 321 326 373 q 366 241 326 272 q 481 211 406 211 z "},"7":{"ha":902,"x_min":29,"x_max":878,"o":"m 878 972 l 878 714 l 409 0 l 71 0 l 543 714 l 29 714 l 29 972 l 878 972 z "},"8":{"ha":993,"x_min":29,"x_max":964,"o":"m 497 -25 q 139 61 249 -25 q 29 282 29 148 q 196 535 29 449 l 196 553 q 126 629 152 580 q 100 734 100 678 q 143 870 100 811 q 275 964 186 929 q 497 998 365 998 q 718 964 628 998 q 852 870 808 929 q 896 734 896 811 q 869 630 896 678 q 797 553 841 581 l 797 535 q 964 282 964 449 q 854 61 964 148 q 497 -25 744 -25 m 497 613 q 584 635 556 613 q 613 696 613 656 q 583 758 613 736 q 497 780 553 780 q 410 758 440 780 q 380 696 380 736 q 409 635 380 656 q 497 613 438 613 m 497 215 q 616 245 580 215 q 653 323 653 274 q 616 400 653 370 q 497 431 579 431 q 377 400 414 431 q 340 323 340 370 q 377 245 340 274 q 497 215 413 215 z "},"9":{"ha":951,"x_min":23,"x_max":928,"o":"m 466 998 q 825 858 721 998 q 928 481 928 718 q 797 95 928 215 q 455 -25 667 -25 q 149 56 259 -25 q 43 299 38 138 l 297 299 q 350 233 307 253 q 455 213 394 213 q 581 251 531 213 q 627 389 631 289 q 412 350 554 350 q 131 427 240 350 q 23 660 23 503 q 73 839 23 763 q 222 956 123 914 q 466 998 322 998 m 470 544 q 586 572 546 544 q 625 652 625 600 q 585 731 625 700 q 470 762 545 762 q 353 731 395 762 q 311 652 311 700 q 352 573 311 602 q 470 544 394 544 z "}," ":{"ha":301,"x_min":0,"x_max":0,"o":""},"!":{"ha":400,"x_min":35,"x_max":366,"o":"m 35 972 l 366 972 l 303 368 l 97 368 l 35 972 m 200 -19 q 121 3 157 -19 q 63 61 84 24 q 41 139 41 97 q 63 217 41 181 q 121 275 84 253 q 200 296 157 296 q 280 275 243 296 q 338 217 316 253 q 360 139 360 181 q 338 61 360 97 q 280 3 316 24 q 200 -19 243 -19 z "},"\"":{"ha":723,"x_min":58,"x_max":666,"o":"m 388 972 l 666 972 l 644 539 l 410 539 l 388 972 m 58 972 l 336 972 l 314 539 l 80 539 l 58 972 z "},"#":{"ha":981,"x_min":35,"x_max":947,"o":"m 823 563 l 823 426 l 947 426 l 947 193 l 823 193 l 823 0 l 558 0 l 558 193 l 424 193 l 424 0 l 159 0 l 159 193 l 35 193 l 35 426 l 159 426 l 159 563 l 35 563 l 35 779 l 159 779 l 159 972 l 424 972 l 424 779 l 558 779 l 558 972 l 823 972 l 823 779 l 947 779 l 947 563 l 823 563 m 558 563 l 424 563 l 424 426 l 558 426 l 558 563 z "},"$":{"ha":911,"x_min":17,"x_max":890,"o":"m 890 316 q 788 125 890 192 q 502 49 686 58 l 502 -21 l 403 -21 l 403 49 q 120 130 222 57 q 17 350 19 203 l 300 350 q 329 289 301 308 q 403 265 356 270 l 403 399 q 219 438 292 418 q 89 511 147 458 q 30 657 30 564 q 130 845 30 775 q 403 922 230 916 l 403 999 l 502 999 l 502 921 q 858 619 863 899 l 582 619 q 561 682 581 661 q 502 708 541 703 l 502 573 q 692 542 615 561 q 830 469 770 523 q 890 316 890 416 m 322 653 q 403 589 322 610 l 403 711 q 322 653 322 700 m 502 265 q 594 321 594 272 q 573 354 594 340 q 502 380 553 368 l 502 265 z "},"%":{"ha":1350,"x_min":52,"x_max":1296,"o":"m 294 57 l 921 1012 l 1056 921 l 428 -34 l 294 57 m 316 469 q 118 542 184 469 q 52 728 52 615 q 118 913 52 840 q 316 986 184 986 q 514 913 448 986 q 580 728 580 840 q 514 542 580 615 q 316 469 448 469 m 316 666 q 363 684 347 666 q 378 728 378 703 q 363 771 378 753 q 316 789 347 789 q 269 771 285 789 q 253 728 253 753 q 269 684 253 703 q 316 666 285 666 m 1032 -14 q 834 59 900 -14 q 769 245 769 132 q 834 431 769 358 q 1032 503 900 503 q 1230 431 1164 503 q 1296 245 1296 358 q 1230 59 1296 132 q 1032 -14 1164 -14 m 1032 183 q 1079 201 1064 183 q 1095 245 1095 220 q 1079 289 1095 271 q 1032 307 1064 307 q 986 289 1001 307 q 970 245 970 271 q 986 201 970 220 q 1032 183 1001 183 z "},"&":{"ha":1188,"x_min":29,"x_max":1159,"o":"m 1028 -27 l 910 58 q 532 -32 758 -32 q 265 7 378 -32 q 90 119 152 46 q 29 291 29 192 q 79 448 29 378 q 234 559 128 519 q 160 729 160 639 q 207 861 160 800 q 348 960 255 922 q 574 998 442 998 q 893 907 777 998 q 1008 626 1009 817 l 729 626 q 688 732 730 703 q 574 762 646 762 q 484 744 515 762 q 454 696 454 727 q 466 663 454 678 q 506 625 478 647 q 606 551 535 603 l 843 383 q 869 516 872 446 l 1150 516 q 1072 219 1147 343 l 1159 157 l 1028 -27 m 565 215 q 671 230 620 215 l 398 427 q 350 341 350 395 q 411 247 350 278 q 565 215 472 215 z "},"'":{"ha":394,"x_min":58,"x_max":336,"o":"m 58 972 l 336 972 l 314 539 l 80 539 l 58 972 z "},"(":{"ha":648,"x_min":23,"x_max":608,"o":"m 608 -168 q 223 -61 352 -168 q 58 186 94 46 q 23 486 23 325 q 58 785 23 646 q 223 1031 94 924 q 608 1138 352 1138 l 608 875 q 424 826 487 875 q 340 695 361 778 q 319 486 319 612 q 340 275 319 359 q 424 144 361 192 q 608 95 487 95 l 608 -168 z "},")":{"ha":648,"x_min":41,"x_max":625,"o":"m 41 95 q 224 144 161 95 q 308 275 287 192 q 329 486 329 359 q 308 695 329 612 q 224 826 287 778 q 41 875 161 875 l 41 1138 q 425 1031 296 1138 q 590 785 554 924 q 625 486 625 646 q 590 186 625 325 q 425 -61 554 46 q 41 -168 296 -168 l 41 95 z "},"*":{"ha":762,"x_min":58,"x_max":704,"o":"m 536 652 l 704 572 l 611 411 l 459 516 l 473 331 l 288 331 l 302 516 l 150 411 l 58 572 l 226 652 l 58 731 l 150 892 l 302 788 l 288 972 l 473 972 l 459 788 l 611 892 l 704 731 l 536 652 z "},"+":{"ha":935,"x_min":58,"x_max":877,"o":"m 877 360 l 601 360 l 601 84 l 333 84 l 333 360 l 58 360 l 58 613 l 333 613 l 333 890 l 601 890 l 601 613 l 877 613 l 877 360 z "},",":{"ha":447,"x_min":35,"x_max":412,"o":"m 146 -275 q 161 0 163 -154 l 35 0 l 35 267 l 412 267 l 412 208 q 391 -100 412 27 q 343 -275 369 -226 l 146 -275 z "},"-":{"ha":764,"x_min":46,"x_max":718,"o":"m 46 615 l 718 615 l 718 347 l 46 347 l 46 615 z "},".":{"ha":400,"x_min":41,"x_max":360,"o":"m 200 -19 q 121 3 157 -19 q 63 61 84 24 q 41 139 41 97 q 63 217 41 181 q 121 275 84 253 q 200 296 157 296 q 280 275 243 296 q 338 217 316 253 q 360 139 360 181 q 338 61 360 97 q 280 3 316 24 q 200 -19 243 -19 z "},"/":{"ha":838,"x_min":12,"x_max":826,"o":"m 461 972 l 826 972 l 377 0 l 12 0 l 461 972 z "},":":{"ha":400,"x_min":41,"x_max":360,"o":"m 200 76 q 121 98 157 76 q 63 156 84 119 q 41 234 41 192 q 63 312 41 275 q 121 370 84 348 q 200 391 157 391 q 280 370 243 391 q 338 312 316 348 q 360 234 360 275 q 338 156 360 192 q 280 98 316 119 q 200 76 243 76 m 200 569 q 121 591 157 569 q 63 649 84 612 q 41 727 41 685 q 63 805 41 769 q 121 863 84 841 q 200 884 157 884 q 280 863 243 884 q 338 805 316 841 q 360 727 360 769 q 338 649 360 685 q 280 591 316 612 q 200 569 243 569 z "},";":{"ha":458,"x_min":41,"x_max":418,"o":"m 152 -171 q 167 104 169 -50 l 41 104 l 41 372 l 418 372 l 418 313 q 396 5 418 131 q 348 -171 375 -122 l 152 -171 m 235 569 q 156 591 192 569 q 97 649 119 612 q 75 727 75 685 q 97 805 75 769 q 156 863 119 841 q 235 884 192 884 q 314 863 278 884 q 373 805 351 841 q 395 727 395 769 q 373 649 395 685 q 314 591 351 612 q 235 569 278 569 z "},"<":{"ha":819,"x_min":58,"x_max":762,"o":"m 58 301 l 58 667 l 762 894 l 762 619 l 296 499 l 296 469 l 762 348 l 762 79 l 58 301 z "},"=":{"ha":843,"x_min":58,"x_max":785,"o":"m 58 785 l 785 785 l 785 517 l 58 517 l 58 785 m 58 456 l 785 456 l 785 189 l 58 189 l 58 456 z "},">":{"ha":843,"x_min":81,"x_max":785,"o":"m 81 348 l 546 469 l 546 499 l 81 619 l 81 894 l 785 667 l 785 301 l 81 79 l 81 348 z "},"?":{"ha":926,"x_min":9,"x_max":909,"o":"m 314 359 q 311 399 311 373 q 336 494 311 458 q 396 549 361 530 q 485 587 431 567 q 565 623 541 606 q 590 670 590 639 q 554 723 590 703 q 462 743 519 743 q 352 716 398 743 q 307 617 307 689 l 17 617 q 124 903 9 808 q 459 998 240 998 q 789 926 669 998 q 909 707 909 854 q 885 597 909 639 q 828 532 861 554 q 741 485 795 509 q 677 453 700 468 q 638 416 654 439 q 622 359 622 394 l 314 359 m 466 -19 q 387 3 424 -19 q 329 61 351 24 q 307 139 307 97 q 329 217 307 181 q 387 275 351 253 q 466 296 424 296 q 546 275 509 296 q 604 217 582 253 q 626 139 626 181 q 604 61 626 97 q 546 3 582 24 q 466 -19 509 -19 z "},"@":{"ha":1127,"x_min":23,"x_max":1104,"o":"m 1045 237 q 946 100 1014 161 q 779 3 877 38 q 564 -32 681 -32 q 281 34 404 -32 q 91 218 159 100 q 23 486 23 336 q 91 755 23 637 q 281 939 159 873 q 564 1005 404 1005 q 845 938 722 1005 q 1036 756 969 872 q 1104 500 1104 641 q 1059 373 1104 414 q 928 331 1014 331 q 794 456 785 331 l 821 743 l 722 743 l 700 692 l 685 692 q 622 741 659 722 q 519 759 584 759 q 394 726 451 759 q 303 630 337 693 q 269 483 269 567 q 303 334 269 397 q 395 237 337 271 q 525 204 454 204 q 633 228 587 204 q 704 295 678 252 l 719 295 q 786 229 741 253 q 896 204 832 204 q 983 215 942 204 q 1043 240 1023 226 l 1045 237 m 534 634 q 623 593 589 634 q 656 480 656 551 q 623 370 656 411 q 534 329 589 329 q 442 369 477 329 q 406 480 406 410 q 442 593 406 551 q 534 634 477 634 z "},"A":{"ha":1176,"x_min":6,"x_max":1170,"o":"m 796 128 l 380 128 l 337 0 l 6 0 l 363 972 l 813 972 l 1170 0 l 839 0 l 796 128 m 718 366 l 616 671 l 560 671 l 458 366 l 718 366 z "},"B":{"ha":1069,"x_min":41,"x_max":1041,"o":"m 890 501 q 1002 409 964 464 q 1041 274 1041 354 q 942 74 1041 148 q 626 0 843 0 l 41 0 l 41 972 l 642 972 q 930 899 845 972 q 1015 714 1015 826 q 983 595 1015 639 q 890 520 950 552 l 890 501 m 361 727 l 361 581 l 609 581 q 685 602 661 581 q 708 653 708 623 q 685 705 708 684 q 609 727 661 727 l 361 727 m 616 245 q 692 270 667 245 q 716 328 716 295 q 692 383 716 360 q 616 406 668 406 l 361 406 l 361 245 l 616 245 z "},"C":{"ha":1105,"x_min":23,"x_max":1082,"o":"m 569 -32 q 284 32 407 -32 q 91 215 160 97 q 23 486 23 332 q 91 758 23 640 q 284 940 160 875 q 569 1005 407 1005 q 808 963 698 1005 q 992 825 918 921 q 1082 572 1067 728 l 777 572 q 704 689 757 650 q 569 728 650 728 q 454 698 506 728 q 372 613 402 668 q 341 486 341 558 q 372 359 341 414 q 454 274 402 304 q 569 244 506 244 q 704 284 650 244 q 777 403 757 323 l 1082 403 q 917 70 1060 172 q 569 -32 773 -32 z "},"D":{"ha":1093,"x_min":41,"x_max":1064,"o":"m 529 972 q 937 842 810 972 q 1064 486 1064 712 q 937 130 1064 260 q 529 0 810 0 l 41 0 l 41 972 l 529 972 m 529 269 q 685 322 627 269 q 742 486 742 375 q 685 651 742 598 q 529 704 628 704 l 362 704 l 362 269 l 529 269 z "},"E":{"ha":957,"x_min":41,"x_max":917,"o":"m 41 972 l 917 972 l 917 715 l 361 715 l 361 591 l 896 591 l 896 381 l 361 381 l 361 257 l 917 257 l 917 0 l 41 0 l 41 972 z "},"F":{"ha":955,"x_min":41,"x_max":914,"o":"m 41 972 l 914 972 l 914 705 l 361 705 l 361 573 l 890 573 l 890 341 l 361 341 l 361 0 l 41 0 l 41 972 z "},"G":{"ha":1133,"x_min":23,"x_max":1087,"o":"m 1087 0 l 916 0 l 911 128 q 766 12 858 56 q 551 -32 674 -32 q 281 32 402 -32 q 92 215 161 97 q 23 486 23 333 q 91 758 23 640 q 286 940 160 875 q 579 1005 412 1005 q 807 965 699 1005 q 990 841 916 925 q 1082 632 1064 757 l 764 632 q 700 700 748 671 q 586 728 653 728 q 459 698 514 728 q 373 613 404 668 q 341 486 341 559 q 372 359 341 414 q 457 274 403 304 q 576 244 510 244 q 696 270 635 244 q 778 370 757 296 l 564 370 l 564 537 l 1087 537 l 1087 0 z "},"H":{"ha":1100,"x_min":41,"x_max":1059,"o":"m 1059 972 l 1059 0 l 738 0 l 738 352 l 361 352 l 361 0 l 41 0 l 41 972 l 361 972 l 361 620 l 738 620 l 738 972 l 1059 972 z "},"I":{"ha":402,"x_min":41,"x_max":361,"o":"m 41 972 l 361 972 l 361 0 l 41 0 l 41 972 z "},"J":{"ha":961,"x_min":25,"x_max":920,"o":"m 466 -32 q 141 60 256 -32 q 29 380 25 153 l 348 380 q 473 240 347 240 q 600 407 600 240 l 600 972 l 920 972 l 920 424 q 867 155 920 256 q 714 11 814 54 q 466 -32 615 -32 z "},"K":{"ha":1095,"x_min":41,"x_max":1101,"o":"m 773 0 l 514 346 l 493 346 l 360 204 l 360 0 l 41 0 l 41 972 l 360 972 l 360 587 l 381 587 l 731 972 l 1088 972 l 693 539 l 1101 0 l 773 0 z "},"L":{"ha":920,"x_min":41,"x_max":880,"o":"m 41 972 l 361 972 l 361 267 l 880 267 l 880 0 l 41 0 l 41 972 z "},"M":{"ha":1229,"x_min":41,"x_max":1189,"o":"m 41 972 l 444 972 l 603 418 l 626 418 l 785 972 l 1189 972 l 1189 0 l 883 0 l 883 431 l 858 431 l 734 0 l 495 0 l 372 431 l 346 431 l 346 0 l 41 0 l 41 972 z "},"N":{"ha":1113,"x_min":41,"x_max":1073,"o":"m 41 972 l 409 972 l 731 447 l 760 447 l 760 972 l 1073 972 l 1073 0 l 713 0 l 382 525 l 353 525 l 353 0 l 41 0 l 41 972 z "},"O":{"ha":1148,"x_min":23,"x_max":1125,"o":"m 574 -32 q 284 32 409 -32 q 91 215 159 97 q 23 486 23 332 q 91 758 23 640 q 284 940 159 875 q 574 1005 409 1005 q 865 940 740 1005 q 1057 758 990 875 q 1125 486 1125 640 q 1057 215 1125 332 q 865 32 990 97 q 574 -32 740 -32 m 574 244 q 692 273 639 244 q 775 356 744 302 q 807 486 807 411 q 775 616 807 561 q 692 699 744 670 q 574 728 639 728 q 457 699 509 728 q 373 616 404 670 q 341 486 341 561 q 373 356 341 411 q 457 273 404 302 q 574 244 509 244 z "},"P":{"ha":1044,"x_min":41,"x_max":1015,"o":"m 41 972 l 593 972 q 906 878 796 972 q 1015 593 1015 785 q 906 307 1015 400 q 594 213 796 213 l 361 213 l 361 0 l 41 0 l 41 972 m 565 479 q 658 508 624 479 q 692 593 692 537 q 659 677 692 648 q 566 706 625 706 l 361 706 l 361 479 l 565 479 z "},"Q":{"ha":1148,"x_min":23,"x_max":1125,"o":"m 1125 498 q 991 176 1125 313 l 1118 46 q 940 -135 1046 -47 l 781 9 q 574 -32 676 -32 q 284 32 409 -32 q 91 215 159 97 q 23 486 23 332 q 91 758 23 640 q 284 940 159 875 q 574 1005 409 1005 q 863 940 738 1005 q 1057 762 988 876 q 1125 498 1125 647 m 341 486 q 373 356 341 411 q 457 273 404 302 q 574 244 509 244 q 692 273 639 244 q 775 356 744 302 q 807 486 807 411 q 775 616 807 561 q 692 699 744 670 q 574 728 639 728 q 457 699 509 728 q 373 616 404 670 q 341 486 341 561 z "},"R":{"ha":1074,"x_min":41,"x_max":1051,"o":"m 736 0 l 604 251 l 361 251 l 361 0 l 41 0 l 41 972 l 597 972 q 911 881 803 972 q 1019 601 1019 789 q 981 436 1019 507 q 877 319 943 366 l 1051 0 l 736 0 m 361 491 l 575 491 q 667 519 635 491 q 698 598 698 546 q 667 678 698 650 q 575 706 635 706 l 361 706 l 361 491 z "},"S":{"ha":1022,"x_min":12,"x_max":1001,"o":"m 509 -32 q 131 52 251 -32 q 17 325 12 137 l 306 325 q 356 245 308 273 q 509 218 405 218 q 639 240 595 218 q 683 296 683 262 q 659 344 683 324 q 571 374 635 365 l 446 394 l 418 398 q 222 440 297 417 q 94 524 147 464 q 41 694 41 584 q 159 923 41 841 q 506 1005 278 1005 q 856 925 734 1005 q 973 649 978 845 l 688 649 q 499 755 669 755 q 385 734 422 755 q 348 678 348 713 q 369 633 348 653 q 440 605 389 613 l 543 588 l 609 578 q 812 536 734 559 q 946 453 890 513 q 1001 284 1001 394 q 509 -32 1001 -32 z "},"T":{"ha":1089,"x_min":35,"x_max":1054,"o":"m 1054 705 l 705 705 l 705 0 l 384 0 l 384 705 l 35 705 l 35 972 l 1054 972 l 1054 705 z "},"U":{"ha":1088,"x_min":41,"x_max":1047,"o":"m 544 -32 q 166 79 291 -32 q 41 424 41 190 l 41 972 l 363 972 l 363 432 q 407 287 363 338 q 544 236 451 236 q 682 287 637 236 q 727 432 727 338 l 727 972 l 1047 972 l 1047 426 q 922 79 1047 191 q 544 -32 797 -32 z "},"V":{"ha":1176,"x_min":6,"x_max":1170,"o":"m 6 972 l 337 972 l 571 301 l 605 301 l 839 972 l 1170 972 l 813 0 l 363 0 l 6 972 z "},"W":{"ha":1493,"x_min":23,"x_max":1470,"o":"m 23 972 l 348 972 l 453 343 l 480 343 l 619 972 l 874 972 l 1013 343 l 1041 343 l 1145 972 l 1470 972 l 1281 0 l 848 0 l 760 468 l 733 468 l 645 0 l 212 0 l 23 972 z "},"X":{"ha":1076,"x_min":0,"x_max":1076,"o":"m 337 485 l 337 501 l 8 972 l 353 972 l 523 712 l 553 712 l 723 972 l 1068 972 l 742 501 l 742 485 l 1076 0 l 728 0 l 553 273 l 523 273 l 348 0 l 0 0 l 337 485 z "},"Y":{"ha":1116,"x_min":0,"x_max":1116,"o":"m 718 302 l 718 0 l 397 0 l 397 303 l 0 972 l 337 972 l 545 606 l 571 606 l 779 972 l 1116 972 l 718 302 z "},"Z":{"ha":961,"x_min":23,"x_max":938,"o":"m 23 258 l 521 681 l 521 705 l 35 705 l 35 972 l 938 972 l 938 714 l 433 292 l 433 267 l 931 267 l 931 0 l 23 0 l 23 258 z "},"[":{"ha":646,"x_min":41,"x_max":605,"o":"m 41 1128 l 605 1128 l 605 861 l 361 861 l 361 111 l 605 111 l 605 -156 l 41 -156 l 41 1128 z "},"\\":{"ha":838,"x_min":12,"x_max":826,"o":"m 461 0 l 12 972 l 377 972 l 826 0 l 461 0 z "},"]":{"ha":646,"x_min":41,"x_max":605,"o":"m 41 -156 l 41 111 l 285 111 l 285 861 l 41 861 l 41 1128 l 605 1128 l 605 -156 l 41 -156 z "},"^":{"ha":907,"x_min":46,"x_max":861,"o":"m 269 1012 l 634 1012 l 861 308 l 587 308 l 466 773 l 436 773 l 316 308 l 46 308 l 269 1012 z "},"_":{"ha":833,"x_min":58,"x_max":775,"o":"m 58 0 l 775 0 l 775 -267 l 58 -267 l 58 0 z "},"`":{"ha":367,"x_min":0,"x_max":367,"o":"m 83 787 l 0 990 l 284 990 l 367 787 l 83 787 z "},"a":{"ha":1176,"x_min":6,"x_max":1170,"o":"m 796 128 l 380 128 l 337 0 l 6 0 l 363 972 l 813 972 l 1170 0 l 839 0 l 796 128 m 718 366 l 616 671 l 560 671 l 458 366 l 718 366 z "},"b":{"ha":1069,"x_min":41,"x_max":1041,"o":"m 890 501 q 1002 409 964 464 q 1041 274 1041 354 q 942 74 1041 148 q 626 0 843 0 l 41 0 l 41 972 l 642 972 q 930 899 845 972 q 1015 714 1015 826 q 983 595 1015 639 q 890 520 950 552 l 890 501 m 361 727 l 361 581 l 609 581 q 685 602 661 581 q 708 653 708 623 q 685 705 708 684 q 609 727 661 727 l 361 727 m 616 245 q 692 270 667 245 q 716 328 716 295 q 692 383 716 360 q 616 406 668 406 l 361 406 l 361 245 l 616 245 z "},"c":{"ha":1105,"x_min":23,"x_max":1082,"o":"m 569 -32 q 284 32 407 -32 q 91 215 160 97 q 23 486 23 332 q 91 758 23 640 q 284 940 160 875 q 569 1005 407 1005 q 808 963 698 1005 q 992 825 918 921 q 1082 572 1067 728 l 777 572 q 704 689 757 650 q 569 728 650 728 q 454 698 506 728 q 372 613 402 668 q 341 486 341 558 q 372 359 341 414 q 454 274 402 304 q 569 244 506 244 q 704 284 650 244 q 777 403 757 323 l 1082 403 q 917 70 1060 172 q 569 -32 773 -32 z "},"d":{"ha":1093,"x_min":41,"x_max":1064,"o":"m 529 972 q 937 842 810 972 q 1064 486 1064 712 q 937 130 1064 260 q 529 0 810 0 l 41 0 l 41 972 l 529 972 m 529 269 q 685 322 627 269 q 742 486 742 375 q 685 651 742 598 q 529 704 628 704 l 362 704 l 362 269 l 529 269 z "},"e":{"ha":957,"x_min":41,"x_max":917,"o":"m 41 972 l 917 972 l 917 715 l 361 715 l 361 591 l 896 591 l 896 381 l 361 381 l 361 257 l 917 257 l 917 0 l 41 0 l 41 972 z "},"f":{"ha":955,"x_min":41,"x_max":914,"o":"m 41 972 l 914 972 l 914 705 l 361 705 l 361 573 l 890 573 l 890 341 l 361 341 l 361 0 l 41 0 l 41 972 z "},"g":{"ha":1133,"x_min":23,"x_max":1087,"o":"m 1087 0 l 916 0 l 911 128 q 766 12 858 56 q 551 -32 674 -32 q 281 32 402 -32 q 92 215 161 97 q 23 486 23 333 q 91 758 23 640 q 286 940 160 875 q 579 1005 412 1005 q 807 965 699 1005 q 990 841 916 925 q 1082 632 1064 757 l 764 632 q 700 700 748 671 q 586 728 653 728 q 459 698 514 728 q 373 613 404 668 q 341 486 341 559 q 372 359 341 414 q 457 274 403 304 q 576 244 510 244 q 696 270 635 244 q 778 370 757 296 l 564 370 l 564 537 l 1087 537 l 1087 0 z "},"h":{"ha":1100,"x_min":41,"x_max":1059,"o":"m 1059 972 l 1059 0 l 738 0 l 738 352 l 361 352 l 361 0 l 41 0 l 41 972 l 361 972 l 361 620 l 738 620 l 738 972 l 1059 972 z "},"i":{"ha":402,"x_min":41,"x_max":361,"o":"m 41 972 l 361 972 l 361 0 l 41 0 l 41 972 z "},"j":{"ha":961,"x_min":25,"x_max":920,"o":"m 466 -32 q 141 60 256 -32 q 29 380 25 153 l 348 380 q 473 240 347 240 q 600 407 600 240 l 600 972 l 920 972 l 920 424 q 867 155 920 256 q 714 11 814 54 q 466 -32 615 -32 z "},"k":{"ha":1095,"x_min":41,"x_max":1101,"o":"m 773 0 l 514 346 l 493 346 l 360 204 l 360 0 l 41 0 l 41 972 l 360 972 l 360 587 l 381 587 l 731 972 l 1088 972 l 693 539 l 1101 0 l 773 0 z "},"l":{"ha":920,"x_min":41,"x_max":880,"o":"m 41 972 l 361 972 l 361 267 l 880 267 l 880 0 l 41 0 l 41 972 z "},"m":{"ha":1229,"x_min":41,"x_max":1189,"o":"m 41 972 l 444 972 l 603 418 l 626 418 l 785 972 l 1189 972 l 1189 0 l 883 0 l 883 431 l 858 431 l 734 0 l 495 0 l 372 431 l 346 431 l 346 0 l 41 0 l 41 972 z "},"n":{"ha":1113,"x_min":41,"x_max":1073,"o":"m 41 972 l 409 972 l 731 447 l 760 447 l 760 972 l 1073 972 l 1073 0 l 713 0 l 382 525 l 353 525 l 353 0 l 41 0 l 41 972 z "},"o":{"ha":1148,"x_min":23,"x_max":1125,"o":"m 574 -32 q 284 32 409 -32 q 91 215 159 97 q 23 486 23 332 q 91 758 23 640 q 284 940 159 875 q 574 1005 409 1005 q 865 940 740 1005 q 1057 758 990 875 q 1125 486 1125 640 q 1057 215 1125 332 q 865 32 990 97 q 574 -32 740 -32 m 574 244 q 692 273 639 244 q 775 356 744 302 q 807 486 807 411 q 775 616 807 561 q 692 699 744 670 q 574 728 639 728 q 457 699 509 728 q 373 616 404 670 q 341 486 341 561 q 373 356 341 411 q 457 273 404 302 q 574 244 509 244 z "},"p":{"ha":1044,"x_min":41,"x_max":1015,"o":"m 41 972 l 593 972 q 906 878 796 972 q 1015 593 1015 785 q 906 307 1015 400 q 594 213 796 213 l 361 213 l 361 0 l 41 0 l 41 972 m 565 479 q 658 508 624 479 q 692 593 692 537 q 659 677 692 648 q 566 706 625 706 l 361 706 l 361 479 l 565 479 z "},"q":{"ha":1148,"x_min":23,"x_max":1125,"o":"m 1125 498 q 991 176 1125 313 l 1118 46 q 940 -135 1046 -47 l 781 9 q 574 -32 676 -32 q 284 32 409 -32 q 91 215 159 97 q 23 486 23 332 q 91 758 23 640 q 284 940 159 875 q 574 1005 409 1005 q 863 940 738 1005 q 1057 762 988 876 q 1125 498 1125 647 m 341 486 q 373 356 341 411 q 457 273 404 302 q 574 244 509 244 q 692 273 639 244 q 775 356 744 302 q 807 486 807 411 q 775 616 807 561 q 692 699 744 670 q 574 728 639 728 q 457 699 509 728 q 373 616 404 670 q 341 486 341 561 z "},"r":{"ha":1074,"x_min":41,"x_max":1051,"o":"m 736 0 l 604 251 l 361 251 l 361 0 l 41 0 l 41 972 l 597 972 q 911 881 803 972 q 1019 601 1019 789 q 981 436 1019 507 q 877 319 943 366 l 1051 0 l 736 0 m 361 491 l 575 491 q 667 519 635 491 q 698 598 698 546 q 667 678 698 650 q 575 706 635 706 l 361 706 l 361 491 z "},"s":{"ha":1022,"x_min":12,"x_max":1001,"o":"m 509 -32 q 131 52 251 -32 q 17 325 12 137 l 306 325 q 356 245 308 273 q 509 218 405 218 q 639 240 595 218 q 683 296 683 262 q 659 344 683 324 q 571 374 635 365 l 446 394 l 418 398 q 222 440 297 417 q 94 524 147 464 q 41 694 41 584 q 159 923 41 841 q 506 1005 278 1005 q 856 925 734 1005 q 973 649 978 845 l 688 649 q 499 755 669 755 q 385 734 422 755 q 348 678 348 713 q 369 633 348 653 q 440 605 389 613 l 543 588 l 609 578 q 812 536 734 559 q 946 453 890 513 q 1001 284 1001 394 q 509 -32 1001 -32 z "},"t":{"ha":1089,"x_min":35,"x_max":1054,"o":"m 1054 705 l 705 705 l 705 0 l 384 0 l 384 705 l 35 705 l 35 972 l 1054 972 l 1054 705 z "},"u":{"ha":1088,"x_min":41,"x_max":1047,"o":"m 544 -32 q 166 79 291 -32 q 41 424 41 190 l 41 972 l 363 972 l 363 432 q 407 287 363 338 q 544 236 451 236 q 682 287 637 236 q 727 432 727 338 l 727 972 l 1047 972 l 1047 426 q 922 79 1047 191 q 544 -32 797 -32 z "},"v":{"ha":1176,"x_min":6,"x_max":1170,"o":"m 6 972 l 337 972 l 571 301 l 605 301 l 839 972 l 1170 972 l 813 0 l 363 0 l 6 972 z "},"w":{"ha":1493,"x_min":23,"x_max":1470,"o":"m 23 972 l 348 972 l 453 343 l 480 343 l 619 972 l 874 972 l 1013 343 l 1041 343 l 1145 972 l 1470 972 l 1281 0 l 848 0 l 760 468 l 733 468 l 645 0 l 212 0 l 23 972 z "},"x":{"ha":1076,"x_min":0,"x_max":1076,"o":"m 337 485 l 337 501 l 8 972 l 353 972 l 523 712 l 553 712 l 723 972 l 1068 972 l 742 501 l 742 485 l 1076 0 l 728 0 l 553 273 l 523 273 l 348 0 l 0 0 l 337 485 z "},"y":{"ha":1116,"x_min":0,"x_max":1116,"o":"m 718 302 l 718 0 l 397 0 l 397 303 l 0 972 l 337 972 l 545 606 l 571 606 l 779 972 l 1116 972 l 718 302 z "},"z":{"ha":961,"x_min":23,"x_max":938,"o":"m 23 258 l 521 681 l 521 705 l 35 705 l 35 972 l 938 972 l 938 714 l 433 292 l 433 267 l 931 267 l 931 0 l 23 0 l 23 258 z "},"{":{"ha":818,"x_min":52,"x_max":766,"o":"m 365 -156 q 193 15 193 -156 l 193 309 l 52 472 l 52 500 l 193 663 l 193 957 q 245 1094 193 1059 q 365 1128 297 1128 l 766 1128 l 766 861 l 563 861 q 514 822 514 861 l 514 661 l 383 500 l 383 472 l 514 311 l 514 150 q 563 111 514 111 l 766 111 l 766 -156 l 365 -156 z "},"|":{"ha":402,"x_min":41,"x_max":361,"o":"m 41 1088 l 361 1088 l 361 -116 l 41 -116 l 41 1088 z "},"}":{"ha":818,"x_min":52,"x_max":766,"o":"m 52 -156 l 52 111 l 256 111 q 304 150 304 111 l 304 311 l 435 472 l 435 500 l 304 661 l 304 822 q 256 861 304 861 l 52 861 l 52 1128 l 454 1128 q 573 1094 521 1128 q 625 957 625 1059 l 625 663 l 766 500 l 766 472 l 625 309 l 625 15 q 454 -156 625 -156 l 52 -156 z "},"~":{"ha":826,"x_min":57,"x_max":770,"o":"m 542 358 q 466 370 501 359 q 384 404 431 382 q 314 433 341 424 q 257 442 287 442 q 194 424 218 442 q 169 373 171 405 l 60 373 q 57 420 57 399 q 89 535 57 488 q 172 604 120 581 q 285 626 225 626 q 359 615 325 626 q 442 581 394 604 q 510 552 483 561 q 567 542 538 543 q 630 562 606 544 q 657 611 654 580 l 766 611 q 770 564 770 587 q 737 450 770 497 q 653 381 705 404 q 542 358 601 359 z "},"¡":{"ha":603,"x_min":36,"x_max":367,"o":"m 201 741 q 281 719 244 741 q 339 661 317 698 q 361 583 361 625 q 339 505 361 542 q 281 447 317 469 q 201 426 244 426 q 122 447 159 426 q 64 505 86 469 q 42 583 42 542 q 64 661 42 625 q 122 719 86 698 q 201 741 159 741 m 304 354 l 367 -250 l 36 -250 l 98 354 l 304 354 z "},"¢":{"ha":1009,"x_min":23,"x_max":986,"o":"m 520 266 q 642 302 594 266 q 708 410 691 338 l 986 410 q 836 108 966 201 q 520 15 705 15 q 353 37 434 15 l 336 0 l 227 0 l 260 73 q 86 238 148 131 q 23 486 23 345 q 85 733 23 626 q 260 898 147 839 q 520 957 373 957 q 662 942 595 957 l 676 972 l 785 972 l 756 911 q 913 782 852 867 q 986 564 973 697 l 708 564 q 645 669 691 631 l 462 273 q 520 266 490 266 m 313 486 q 376 323 313 384 l 552 704 q 520 706 531 706 q 414 679 462 706 q 340 601 367 652 q 313 486 313 551 z "},"£":{"ha":935,"x_min":23,"x_max":912,"o":"m 475 735 q 387 709 420 735 q 353 638 353 683 q 361 592 353 611 q 385 544 369 573 l 403 515 l 755 515 l 755 382 l 417 382 q 326 252 403 299 l 326 243 l 910 243 l 910 0 l 23 0 l 23 243 q 116 306 78 267 q 167 382 155 345 l 23 382 l 23 515 l 122 515 q 69 607 87 567 q 51 703 51 647 q 104 858 51 792 q 255 961 157 925 q 481 998 353 998 q 706 961 609 998 q 858 854 803 925 q 912 683 912 784 q 910 638 912 653 l 605 638 q 560 714 597 693 q 475 735 523 735 z "},"¤":{"ha":944,"x_min":116,"x_max":829,"o":"m 792 661 q 770 547 792 603 l 829 488 l 686 347 l 639 395 q 473 350 563 350 q 307 396 384 350 l 258 347 l 116 488 l 176 549 q 155 661 155 601 q 179 780 155 722 l 116 845 l 258 986 l 315 931 q 473 972 388 972 q 631 932 557 972 l 686 986 l 829 845 l 766 782 q 792 661 792 725 m 473 537 q 556 561 527 537 q 595 613 586 584 q 605 661 605 641 q 595 708 605 679 q 556 762 586 737 q 473 787 527 787 q 391 762 420 787 q 351 708 361 737 q 340 661 340 679 q 351 613 340 642 q 391 561 361 584 q 473 537 420 537 z "},"¥":{"ha":1116,"x_min":0,"x_max":1116,"o":"m 784 413 l 1023 413 l 1023 287 l 718 287 l 718 241 l 1023 241 l 1023 113 l 718 113 l 718 0 l 397 0 l 397 113 l 95 113 l 95 241 l 397 241 l 397 287 l 95 287 l 95 413 l 332 413 l 0 972 l 337 972 l 545 606 l 571 606 l 779 972 l 1116 972 l 784 413 z "},"¦":{"ha":402,"x_min":41,"x_max":361,"o":"m 41 1088 l 361 1088 l 361 529 l 41 529 l 41 1088 m 41 443 l 361 443 l 361 -116 l 41 -116 l 41 443 z "},"§":{"ha":1024,"x_min":12,"x_max":1003,"o":"m 918 227 q 1003 30 1003 159 q 882 -207 1003 -128 q 512 -286 760 -286 q 133 -201 253 -286 q 17 74 12 -116 l 308 74 q 359 -8 310 20 q 512 -36 407 -36 q 641 -14 597 -36 q 685 43 685 8 q 571 123 685 106 l 450 142 l 421 147 q 227 188 302 166 q 97 266 152 211 q 43 424 43 322 q 157 618 43 554 q 43 838 43 689 q 161 1067 43 985 q 508 1148 280 1148 q 858 1068 736 1148 q 976 791 980 988 l 690 791 q 501 898 671 898 q 388 877 425 898 q 351 822 351 856 q 444 747 351 763 l 543 729 q 583 723 564 726 q 620 716 603 720 q 819 675 743 698 q 949 594 895 653 q 1003 427 1003 535 q 918 227 1003 295 m 529 334 q 557 333 539 333 q 653 362 622 333 q 685 428 685 391 q 660 484 685 457 q 571 520 634 510 l 475 536 q 390 514 429 538 q 351 439 351 490 q 372 387 351 414 q 447 350 394 359 l 529 334 z "},"¨":{"ha":587,"x_min":0,"x_max":587,"o":"m 117 791 q 34 822 68 791 q 0 902 0 854 q 34 981 0 949 q 117 1013 68 1013 q 200 981 166 1013 q 234 902 234 949 q 200 822 234 854 q 117 791 166 791 m 470 791 q 387 822 421 791 q 353 902 353 854 q 387 981 353 949 q 470 1013 421 1013 q 553 981 519 1013 q 587 902 587 949 q 553 822 587 854 q 470 791 519 791 z "},"©":{"ha":727,"x_min":46,"x_max":681,"o":"m 362 374 q 198 413 270 374 q 86 523 126 453 q 46 684 46 594 q 86 845 46 774 q 198 957 126 917 q 362 998 270 998 q 528 957 456 998 q 641 845 601 917 q 681 684 681 774 q 641 523 681 594 q 528 413 601 453 q 362 374 456 374 m 367 503 q 479 536 429 503 q 538 638 528 569 l 447 637 q 416 594 434 610 q 361 579 397 579 q 293 606 321 579 q 266 684 266 633 q 293 761 266 734 q 361 788 321 788 q 416 773 397 788 q 447 734 434 758 l 538 734 q 479 834 528 801 q 367 868 429 868 q 231 818 284 868 q 178 684 178 767 q 230 553 178 602 q 367 503 282 503 z "},"ª":{"ha":634,"x_min":46,"x_max":588,"o":"m 588 972 l 588 471 l 442 471 l 418 514 q 289 471 360 471 q 169 505 225 471 q 80 597 113 539 q 46 725 46 655 q 80 852 46 794 q 169 945 113 911 q 289 979 225 979 q 422 933 362 979 l 442 972 l 588 972 m 306 656 q 356 676 337 656 q 376 725 376 696 q 356 775 376 753 q 306 796 336 796 q 255 775 275 796 q 234 725 234 753 q 254 676 234 696 q 306 656 274 656 z "},"«":{"ha":1118,"x_min":69,"x_max":1049,"o":"m 294 139 l 69 486 l 294 833 l 625 833 l 400 486 l 625 139 l 294 139 m 718 139 l 493 486 l 718 833 l 1049 833 l 824 486 l 1049 139 l 718 139 z "},"¬":{"ha":836,"x_min":-12,"x_max":778,"o":"m 512 438 l -12 438 l -12 655 l 778 655 l 778 317 l 512 317 l 512 438 z "},"­":{"ha":764,"x_min":46,"x_max":718,"o":"m 46 615 l 718 615 l 718 347 l 46 347 l 46 615 z "},"®":{"ha":727,"x_min":46,"x_max":681,"o":"m 362 374 q 198 413 270 374 q 86 523 126 453 q 46 684 46 594 q 86 845 46 774 q 198 957 126 917 q 362 998 270 998 q 528 957 456 998 q 641 845 601 917 q 681 684 681 774 q 641 523 681 594 q 528 413 601 453 q 362 374 456 374 m 303 500 l 303 611 l 388 611 l 450 500 l 550 500 l 472 630 q 539 737 539 663 q 499 830 539 797 q 384 862 458 862 l 212 862 l 212 500 l 303 500 m 303 787 l 387 787 q 427 774 412 787 q 442 737 442 762 q 427 700 442 714 q 387 686 411 686 l 303 686 l 303 787 z "},"¯":{"ha":532,"x_min":0,"x_max":532,"o":"m 0 1024 l 532 1024 l 532 792 l 0 792 l 0 1024 z "},"°":{"ha":613,"x_min":42,"x_max":572,"o":"m 307 451 q 171 486 231 451 q 76 580 111 520 q 42 715 42 640 q 76 851 42 791 q 171 945 111 911 q 307 979 231 979 q 442 945 382 979 q 537 851 502 911 q 572 715 572 791 q 537 580 572 640 q 442 486 502 520 q 307 451 382 451 m 307 653 q 356 673 341 653 q 372 715 372 693 q 356 758 372 737 q 307 778 341 778 q 257 758 272 778 q 242 715 242 737 q 257 673 242 693 q 307 653 272 653 z "},"±":{"ha":841,"x_min":57,"x_max":876,"o":"m 876 595 l 600 595 l 600 319 l 332 319 l 332 595 l 57 595 l 57 848 l 332 848 l 332 1125 l 600 1125 l 600 848 l 876 848 l 876 595 m 57 267 l 784 267 l 784 0 l 57 0 l 57 267 z "},"´":{"ha":367,"x_min":0,"x_max":367,"o":"m 83 990 l 367 990 l 284 787 l 0 787 l 83 990 z "},"µ":{"ha":958,"x_min":41,"x_max":918,"o":"m 918 787 l 918 0 l 603 0 l 597 103 l 567 103 q 476 19 531 49 q 361 -16 420 -10 l 361 -174 l 41 -174 l 41 787 l 361 787 l 361 353 q 398 263 361 286 q 480 240 434 240 q 565 270 534 240 q 597 340 597 300 l 597 787 l 918 787 z "},"¶":{"ha":1476,"x_min":23,"x_max":1435,"o":"m 654 222 l 484 222 q 143 315 263 222 q 23 597 23 407 q 143 880 23 787 q 485 972 263 972 l 975 972 l 975 0 l 654 0 l 654 222 m 1115 972 l 1435 972 l 1435 0 l 1115 0 l 1115 972 z "},"·":{"ha":505,"x_min":93,"x_max":412,"o":"m 252 329 q 173 350 209 329 q 115 408 137 372 q 93 486 93 444 q 115 564 93 528 q 173 622 137 601 q 252 644 209 644 q 332 622 295 644 q 390 564 368 601 q 412 486 412 528 q 390 408 412 444 q 332 350 368 372 q 252 329 295 329 z "},"¸":{"ha":299,"x_min":0,"x_max":299,"o":"m 164 -39 q 259 -77 219 -43 q 299 -172 299 -111 q 242 -281 299 -243 q 95 -319 185 -319 q 0 -309 49 -319 l 0 -187 q 72 -196 42 -196 q 114 -190 100 -196 q 128 -177 128 -184 q 112 -159 128 -168 q 66 -150 96 -150 q 0 -160 36 -150 l 0 -83 l 109 0 l 216 0 l 164 -39 z "},"º":{"ha":595,"x_min":46,"x_max":549,"o":"m 297 473 q 171 507 229 473 q 80 598 113 541 q 46 725 46 656 q 80 852 46 794 q 171 945 113 911 q 297 979 229 979 q 424 945 366 979 q 515 852 481 911 q 549 725 549 794 q 515 598 549 656 q 424 507 481 541 q 297 473 366 473 m 297 656 q 347 675 328 656 q 367 725 367 693 q 347 776 367 756 q 297 796 328 796 q 248 776 267 796 q 228 725 228 756 q 248 675 228 693 q 297 656 267 656 z "},"»":{"ha":1118,"x_min":69,"x_max":1049,"o":"m 718 486 l 493 833 l 824 833 l 1049 486 l 824 139 l 493 139 l 718 486 m 294 486 l 69 833 l 400 833 l 625 486 l 400 139 l 69 139 l 294 486 z "},"¿":{"ha":938,"x_min":29,"x_max":928,"o":"m 471 741 q 550 719 514 741 q 609 661 587 698 q 631 583 631 625 q 609 505 631 542 q 550 447 587 469 q 471 426 514 426 q 392 447 428 426 q 333 505 355 469 q 311 583 311 542 q 333 661 311 625 q 392 719 355 698 q 471 741 428 741 m 624 363 q 626 323 626 350 q 601 228 626 264 q 542 174 576 192 q 453 135 507 155 q 372 100 397 116 q 347 52 347 83 q 383 -1 347 20 q 476 -21 419 -21 q 585 6 539 -21 q 631 105 631 34 l 920 105 q 813 -181 928 -86 q 478 -275 698 -275 q 149 -204 269 -275 q 29 15 29 -132 q 53 126 29 83 q 109 190 76 168 q 197 237 142 213 q 260 269 237 255 q 300 306 284 284 q 316 363 316 329 l 624 363 z "},"À":{"ha":1176,"x_min":6,"x_max":1170,"o":"m 796 128 l 380 128 l 337 0 l 6 0 l 363 972 l 813 972 l 1170 0 l 839 0 l 796 128 m 718 366 l 616 671 l 560 671 l 458 366 l 718 366 m 449 1030 l 366 1233 l 649 1233 l 733 1030 l 449 1030 z "},"Á":{"ha":1176,"x_min":6,"x_max":1170,"o":"m 796 128 l 380 128 l 337 0 l 6 0 l 363 972 l 813 972 l 1170 0 l 839 0 l 796 128 m 718 366 l 616 671 l 560 671 l 458 366 l 718 366 m 528 1233 l 811 1233 l 728 1030 l 444 1030 l 528 1233 z "},"Â":{"ha":1176,"x_min":6,"x_max":1170,"o":"m 796 128 l 380 128 l 337 0 l 6 0 l 363 972 l 813 972 l 1170 0 l 839 0 l 796 128 m 718 366 l 616 671 l 560 671 l 458 366 l 718 366 m 395 1233 l 781 1233 l 934 1030 l 669 1030 l 620 1087 l 556 1087 l 507 1030 l 242 1030 l 395 1233 z "},"Ã":{"ha":1176,"x_min":6,"x_max":1170,"o":"m 796 128 l 380 128 l 337 0 l 6 0 l 363 972 l 813 972 l 1170 0 l 839 0 l 796 128 m 718 366 l 616 671 l 560 671 l 458 366 l 718 366 m 690 1028 q 629 1037 656 1028 q 564 1064 602 1046 q 509 1087 531 1080 q 463 1095 487 1095 q 413 1080 432 1095 q 391 1039 394 1066 l 304 1039 q 301 1078 301 1060 q 355 1200 301 1159 q 484 1242 409 1242 q 543 1233 516 1242 q 609 1206 571 1223 q 665 1182 644 1190 q 711 1175 686 1175 q 761 1189 742 1175 q 782 1230 780 1204 l 869 1230 q 873 1192 873 1209 q 819 1069 873 1111 q 690 1028 765 1028 z "},"Ä":{"ha":1176,"x_min":6,"x_max":1170,"o":"m 796 128 l 380 128 l 337 0 l 6 0 l 363 972 l 813 972 l 1170 0 l 839 0 l 796 128 m 718 366 l 616 671 l 560 671 l 458 366 l 718 366 m 411 1034 q 328 1065 362 1034 q 294 1145 294 1097 q 328 1224 294 1192 q 411 1256 362 1256 q 494 1224 459 1256 q 528 1145 528 1192 q 494 1065 528 1097 q 411 1034 459 1034 m 764 1034 q 681 1065 715 1034 q 647 1145 647 1097 q 681 1224 647 1192 q 764 1256 715 1256 q 847 1224 813 1256 q 881 1145 881 1192 q 847 1065 881 1097 q 764 1034 813 1034 z "},"Å":{"ha":1176,"x_min":6,"x_max":1170,"o":"m 796 128 l 380 128 l 337 0 l 6 0 l 363 972 l 513 972 q 447 1031 471 992 q 422 1118 422 1071 q 444 1201 422 1163 q 504 1262 466 1240 q 588 1284 542 1284 q 671 1262 634 1284 q 730 1201 708 1240 q 751 1118 751 1163 q 727 1031 751 1071 q 662 972 703 992 l 813 972 l 1170 0 l 839 0 l 796 128 m 588 1155 q 563 1146 573 1155 q 553 1120 553 1137 q 563 1094 553 1103 q 588 1086 572 1086 q 613 1094 603 1086 q 623 1116 623 1102 q 588 1155 623 1155 m 718 366 l 616 671 l 560 671 l 458 366 l 718 366 z "},"Æ":{"ha":1617,"x_min":6,"x_max":1576,"o":"m 1021 715 l 1021 591 l 1556 591 l 1556 381 l 1021 381 l 1021 257 l 1576 257 l 1576 0 l 700 0 l 700 131 l 388 131 l 329 0 l 6 0 l 443 972 l 1576 972 l 1576 715 l 1021 715 m 700 366 l 700 705 l 645 705 l 493 366 l 700 366 z "},"Ç":{"ha":1105,"x_min":23,"x_max":1082,"o":"m 569 244 q 704 284 650 244 q 777 403 757 323 l 1082 403 q 931 82 1061 185 q 611 -31 800 -22 l 601 -39 q 695 -77 655 -43 q 735 -172 735 -111 q 678 -281 735 -243 q 531 -319 622 -319 q 436 -309 485 -319 l 436 -187 q 508 -196 478 -196 q 550 -190 536 -196 q 565 -177 565 -184 q 549 -159 565 -168 q 502 -150 532 -150 q 436 -160 472 -150 l 436 -83 l 506 -30 q 252 50 361 -17 q 83 230 142 118 q 23 486 23 343 q 91 758 23 640 q 284 940 160 875 q 569 1005 407 1005 q 808 963 698 1005 q 992 825 918 921 q 1082 572 1067 728 l 777 572 q 704 689 757 650 q 569 728 650 728 q 454 698 506 728 q 372 613 402 668 q 341 486 341 558 q 372 359 341 414 q 454 274 402 304 q 569 244 506 244 z "},"È":{"ha":957,"x_min":41,"x_max":917,"o":"m 41 972 l 917 972 l 917 715 l 361 715 l 361 591 l 896 591 l 896 381 l 361 381 l 361 257 l 917 257 l 917 0 l 41 0 l 41 972 m 331 1030 l 248 1233 l 531 1233 l 615 1030 l 331 1030 z "},"É":{"ha":957,"x_min":41,"x_max":917,"o":"m 41 972 l 917 972 l 917 715 l 361 715 l 361 591 l 896 591 l 896 381 l 361 381 l 361 257 l 917 257 l 917 0 l 41 0 l 41 972 m 410 1233 l 693 1233 l 610 1030 l 326 1030 l 410 1233 z "},"Ê":{"ha":957,"x_min":41,"x_max":917,"o":"m 41 972 l 917 972 l 917 715 l 361 715 l 361 591 l 896 591 l 896 381 l 361 381 l 361 257 l 917 257 l 917 0 l 41 0 l 41 972 m 277 1233 l 663 1233 l 816 1030 l 551 1030 l 502 1087 l 438 1087 l 389 1030 l 124 1030 l 277 1233 z "},"Ë":{"ha":957,"x_min":41,"x_max":917,"o":"m 41 972 l 917 972 l 917 715 l 361 715 l 361 591 l 896 591 l 896 381 l 361 381 l 361 257 l 917 257 l 917 0 l 41 0 l 41 972 m 293 1034 q 210 1065 244 1034 q 176 1145 176 1097 q 210 1224 176 1192 q 293 1256 244 1256 q 376 1224 341 1256 q 410 1145 410 1192 q 376 1065 410 1097 q 293 1034 341 1034 m 646 1034 q 563 1065 597 1034 q 529 1145 529 1097 q 563 1224 529 1192 q 646 1256 597 1256 q 729 1224 694 1256 q 763 1145 763 1192 q 729 1065 763 1097 q 646 1034 694 1034 z "},"Ì":{"ha":402,"x_min":-22,"x_max":361,"o":"m 41 972 l 361 972 l 361 0 l 41 0 l 41 972 m 61 1030 l -22 1233 l 262 1233 l 345 1030 l 61 1030 z "},"Í":{"ha":402,"x_min":41,"x_max":424,"o":"m 41 972 l 361 972 l 361 0 l 41 0 l 41 972 m 140 1233 l 424 1233 l 340 1030 l 57 1030 l 140 1233 z "},"Î":{"ha":402,"x_min":-146,"x_max":546,"o":"m 41 972 l 361 972 l 361 0 l 41 0 l 41 972 m 7 1233 l 394 1233 l 546 1030 l 281 1030 l 233 1087 l 168 1087 l 119 1030 l -146 1030 l 7 1233 z "},"Ï":{"ha":402,"x_min":-94,"x_max":493,"o":"m 41 972 l 361 972 l 361 0 l 41 0 l 41 972 m 23 1034 q -60 1065 -25 1034 q -94 1145 -94 1097 q -60 1224 -94 1192 q 23 1256 -25 1256 q 106 1224 72 1256 q 140 1145 140 1192 q 106 1065 140 1097 q 23 1034 72 1034 m 376 1034 q 293 1065 328 1034 q 259 1145 259 1097 q 293 1224 259 1192 q 376 1256 328 1256 q 459 1224 425 1256 q 493 1145 493 1192 q 459 1065 493 1097 q 376 1034 425 1034 z "},"Ð":{"ha":1160,"x_min":6,"x_max":1131,"o":"m 596 972 q 1004 842 877 972 q 1131 486 1131 712 q 1004 130 1131 260 q 596 0 877 0 l 108 0 l 108 367 l 6 367 l 6 600 l 108 600 l 108 972 l 596 972 m 596 269 q 752 322 694 269 q 809 486 809 375 q 752 651 809 598 q 596 704 696 704 l 429 704 l 429 600 l 593 600 l 593 367 l 429 367 l 429 269 l 596 269 z "},"Ñ":{"ha":1113,"x_min":41,"x_max":1073,"o":"m 41 972 l 409 972 l 731 447 l 760 447 l 760 972 l 1073 972 l 1073 0 l 713 0 l 382 525 l 353 525 l 353 0 l 41 0 l 41 972 m 659 1028 q 598 1037 625 1028 q 532 1064 571 1046 q 478 1087 500 1080 q 432 1095 456 1095 q 381 1080 400 1095 q 360 1039 362 1066 l 273 1039 q 270 1078 270 1060 q 323 1200 270 1159 q 453 1242 377 1242 q 512 1233 485 1242 q 578 1206 539 1223 q 634 1182 612 1190 q 679 1175 655 1175 q 730 1189 711 1175 q 751 1230 749 1204 l 838 1230 q 841 1192 841 1209 q 788 1069 841 1111 q 659 1028 734 1028 z "},"Ò":{"ha":1148,"x_min":23,"x_max":1125,"o":"m 574 -32 q 284 32 409 -32 q 91 215 159 97 q 23 486 23 332 q 91 758 23 640 q 284 940 159 875 q 574 1005 409 1005 q 865 940 740 1005 q 1057 758 990 875 q 1125 486 1125 640 q 1057 215 1125 332 q 865 32 990 97 q 574 -32 740 -32 m 574 244 q 692 273 639 244 q 775 356 744 302 q 807 486 807 411 q 775 616 807 561 q 692 699 744 670 q 574 728 639 728 q 457 699 509 728 q 373 616 404 670 q 341 486 341 561 q 373 356 341 411 q 457 273 404 302 q 574 244 509 244 m 435 1035 l 352 1237 l 635 1237 l 719 1035 l 435 1035 z "},"Ó":{"ha":1148,"x_min":23,"x_max":1125,"o":"m 574 -32 q 284 32 409 -32 q 91 215 159 97 q 23 486 23 332 q 91 758 23 640 q 284 940 159 875 q 574 1005 409 1005 q 865 940 740 1005 q 1057 758 990 875 q 1125 486 1125 640 q 1057 215 1125 332 q 865 32 990 97 q 574 -32 740 -32 m 574 244 q 692 273 639 244 q 775 356 744 302 q 807 486 807 411 q 775 616 807 561 q 692 699 744 670 q 574 728 639 728 q 457 699 509 728 q 373 616 404 670 q 341 486 341 561 q 373 356 341 411 q 457 273 404 302 q 574 244 509 244 m 514 1237 l 797 1237 l 714 1035 l 431 1035 l 514 1237 z "},"Ô":{"ha":1148,"x_min":23,"x_max":1125,"o":"m 574 -32 q 284 32 409 -32 q 91 215 159 97 q 23 486 23 332 q 91 758 23 640 q 284 940 159 875 q 574 1005 409 1005 q 865 940 740 1005 q 1057 758 990 875 q 1125 486 1125 640 q 1057 215 1125 332 q 865 32 990 97 q 574 -32 740 -32 m 574 244 q 692 273 639 244 q 775 356 744 302 q 807 486 807 411 q 775 616 807 561 q 692 699 744 670 q 574 728 639 728 q 457 699 509 728 q 373 616 404 670 q 341 486 341 561 q 373 356 341 411 q 457 273 404 302 q 574 244 509 244 m 381 1237 l 767 1237 l 920 1035 l 655 1035 l 606 1091 l 542 1091 l 493 1035 l 228 1035 l 381 1237 z "},"Õ":{"ha":1148,"x_min":23,"x_max":1125,"o":"m 574 -32 q 284 32 409 -32 q 91 215 159 97 q 23 486 23 332 q 91 758 23 640 q 284 940 159 875 q 574 1005 409 1005 q 865 940 740 1005 q 1057 758 990 875 q 1125 486 1125 640 q 1057 215 1125 332 q 865 32 990 97 q 574 -32 740 -32 m 574 244 q 692 273 639 244 q 775 356 744 302 q 807 486 807 411 q 775 616 807 561 q 692 699 744 670 q 574 728 639 728 q 457 699 509 728 q 373 616 404 670 q 341 486 341 561 q 373 356 341 411 q 457 273 404 302 q 574 244 509 244 m 676 1032 q 615 1042 642 1032 q 550 1068 588 1051 q 495 1092 517 1084 q 449 1100 473 1100 q 399 1085 418 1100 q 377 1044 380 1071 l 291 1044 q 287 1082 287 1065 q 341 1205 287 1163 q 470 1247 395 1247 q 530 1237 502 1247 q 595 1211 557 1228 q 651 1187 630 1194 q 697 1179 672 1179 q 747 1194 728 1179 q 769 1235 766 1208 l 855 1235 q 859 1197 859 1214 q 805 1074 859 1116 q 676 1032 751 1032 z "},"Ö":{"ha":1148,"x_min":23,"x_max":1125,"o":"m 574 -32 q 284 32 409 -32 q 91 215 159 97 q 23 486 23 332 q 91 758 23 640 q 284 940 159 875 q 574 1005 409 1005 q 865 940 740 1005 q 1057 758 990 875 q 1125 486 1125 640 q 1057 215 1125 332 q 865 32 990 97 q 574 -32 740 -32 m 574 244 q 692 273 639 244 q 775 356 744 302 q 807 486 807 411 q 775 616 807 561 q 692 699 744 670 q 574 728 639 728 q 457 699 509 728 q 373 616 404 670 q 341 486 341 561 q 373 356 341 411 q 457 273 404 302 q 574 244 509 244 m 397 1038 q 314 1070 348 1038 q 280 1149 280 1102 q 314 1229 280 1197 q 397 1260 348 1260 q 480 1229 446 1260 q 514 1149 514 1197 q 480 1070 514 1102 q 397 1038 446 1038 m 750 1038 q 667 1070 701 1038 q 633 1149 633 1102 q 667 1229 633 1197 q 750 1260 701 1260 q 833 1229 799 1260 q 867 1149 867 1197 q 833 1070 867 1102 q 750 1038 799 1038 z "},"×":{"ha":874,"x_min":57,"x_max":816,"o":"m 620 448 l 816 252 l 637 73 l 441 269 l 247 74 l 57 263 l 252 458 l 57 653 l 236 831 l 431 637 l 626 832 l 816 644 l 620 448 z "},"Ø":{"ha":1148,"x_min":23,"x_max":1125,"o":"m 873 936 q 1059 755 993 872 q 1125 486 1125 639 q 1057 215 1125 332 q 865 32 990 97 q 574 -32 740 -32 q 432 -19 500 -32 l 413 -59 l 220 -59 l 266 42 q 87 222 150 108 q 23 486 23 337 q 91 758 23 640 q 284 940 159 875 q 574 1005 409 1005 q 705 993 647 1005 l 723 1032 l 917 1032 l 873 936 m 341 486 q 396 323 341 389 l 583 728 l 574 728 q 457 699 509 728 q 373 616 404 670 q 341 486 341 561 m 574 244 q 692 273 639 244 q 775 356 744 302 q 807 486 807 411 q 791 583 807 539 q 744 659 774 627 l 553 245 q 574 244 560 244 z "},"Ù":{"ha":1088,"x_min":41,"x_max":1047,"o":"m 544 -32 q 166 79 291 -32 q 41 424 41 190 l 41 972 l 363 972 l 363 432 q 407 287 363 338 q 544 236 451 236 q 682 287 637 236 q 727 432 727 338 l 727 972 l 1047 972 l 1047 426 q 922 79 1047 191 q 544 -32 797 -32 m 405 1030 l 322 1233 l 605 1233 l 689 1030 l 405 1030 z "},"Ú":{"ha":1088,"x_min":41,"x_max":1047,"o":"m 544 -32 q 166 79 291 -32 q 41 424 41 190 l 41 972 l 363 972 l 363 432 q 407 287 363 338 q 544 236 451 236 q 682 287 637 236 q 727 432 727 338 l 727 972 l 1047 972 l 1047 426 q 922 79 1047 191 q 544 -32 797 -32 m 484 1233 l 767 1233 l 684 1030 l 400 1030 l 484 1233 z "},"Û":{"ha":1088,"x_min":41,"x_max":1047,"o":"m 544 -32 q 166 79 291 -32 q 41 424 41 190 l 41 972 l 363 972 l 363 432 q 407 287 363 338 q 544 236 451 236 q 682 287 637 236 q 727 432 727 338 l 727 972 l 1047 972 l 1047 426 q 922 79 1047 191 q 544 -32 797 -32 m 351 1233 l 737 1233 l 890 1030 l 625 1030 l 576 1087 l 512 1087 l 463 1030 l 198 1030 l 351 1233 z "},"Ü":{"ha":1088,"x_min":41,"x_max":1047,"o":"m 544 -32 q 166 79 291 -32 q 41 424 41 190 l 41 972 l 363 972 l 363 432 q 407 287 363 338 q 544 236 451 236 q 682 287 637 236 q 727 432 727 338 l 727 972 l 1047 972 l 1047 426 q 922 79 1047 191 q 544 -32 797 -32 m 367 1034 q 284 1065 318 1034 q 250 1145 250 1097 q 284 1224 250 1192 q 367 1256 318 1256 q 450 1224 416 1256 q 484 1145 484 1192 q 450 1065 484 1097 q 367 1034 416 1034 m 720 1034 q 637 1065 671 1034 q 603 1145 603 1097 q 637 1224 603 1192 q 720 1256 671 1256 q 803 1224 769 1256 q 837 1145 837 1192 q 803 1065 837 1097 q 720 1034 769 1034 z "},"Ý":{"ha":1116,"x_min":0,"x_max":1116,"o":"m 718 302 l 718 0 l 397 0 l 397 303 l 0 972 l 337 972 l 545 606 l 571 606 l 779 972 l 1116 972 l 718 302 m 498 1233 l 781 1233 l 698 1030 l 414 1030 l 498 1233 z "},"Þ":{"ha":1021,"x_min":41,"x_max":992,"o":"m 530 861 q 872 769 752 861 q 992 486 992 676 q 872 204 992 296 q 531 111 752 111 l 361 111 l 361 0 l 41 0 l 41 972 l 361 972 l 361 861 l 530 861 m 537 377 q 634 404 598 377 q 669 486 669 431 q 634 568 669 541 q 538 595 598 595 l 361 595 l 361 377 l 537 377 z "},"ß":{"ha":1030,"x_min":41,"x_max":1001,"o":"m 41 648 q 167 917 41 837 q 493 998 294 998 q 753 958 654 998 q 894 855 852 918 q 935 720 935 792 q 825 536 935 597 l 825 515 q 954 427 907 485 q 1001 279 1001 368 q 899 77 1001 154 q 575 0 797 0 l 425 0 l 425 242 l 567 242 q 657 267 630 242 q 684 328 684 292 q 657 387 684 361 q 567 412 630 412 l 425 412 l 425 584 l 539 584 q 613 604 590 584 q 635 649 635 624 q 606 705 635 684 q 512 726 578 726 q 361 632 361 726 l 361 0 l 41 0 l 41 648 z "},"à":{"ha":1176,"x_min":6,"x_max":1170,"o":"m 796 128 l 380 128 l 337 0 l 6 0 l 363 972 l 813 972 l 1170 0 l 839 0 l 796 128 m 718 366 l 616 671 l 560 671 l 458 366 l 718 366 m 449 1030 l 366 1233 l 649 1233 l 733 1030 l 449 1030 z "},"á":{"ha":1176,"x_min":6,"x_max":1170,"o":"m 796 128 l 380 128 l 337 0 l 6 0 l 363 972 l 813 972 l 1170 0 l 839 0 l 796 128 m 718 366 l 616 671 l 560 671 l 458 366 l 718 366 m 528 1233 l 811 1233 l 728 1030 l 444 1030 l 528 1233 z "},"â":{"ha":1176,"x_min":6,"x_max":1170,"o":"m 796 128 l 380 128 l 337 0 l 6 0 l 363 972 l 813 972 l 1170 0 l 839 0 l 796 128 m 718 366 l 616 671 l 560 671 l 458 366 l 718 366 m 395 1233 l 781 1233 l 934 1030 l 669 1030 l 620 1087 l 556 1087 l 507 1030 l 242 1030 l 395 1233 z "},"ã":{"ha":1176,"x_min":6,"x_max":1170,"o":"m 796 128 l 380 128 l 337 0 l 6 0 l 363 972 l 813 972 l 1170 0 l 839 0 l 796 128 m 718 366 l 616 671 l 560 671 l 458 366 l 718 366 m 690 1028 q 629 1037 656 1028 q 564 1064 602 1046 q 509 1087 531 1080 q 463 1095 487 1095 q 413 1080 432 1095 q 391 1039 394 1066 l 304 1039 q 301 1078 301 1060 q 355 1200 301 1159 q 484 1242 409 1242 q 543 1233 516 1242 q 609 1206 571 1223 q 665 1182 644 1190 q 711 1175 686 1175 q 761 1189 742 1175 q 782 1230 780 1204 l 869 1230 q 873 1192 873 1209 q 819 1069 873 1111 q 690 1028 765 1028 z "},"ä":{"ha":1176,"x_min":6,"x_max":1170,"o":"m 796 128 l 380 128 l 337 0 l 6 0 l 363 972 l 813 972 l 1170 0 l 839 0 l 796 128 m 718 366 l 616 671 l 560 671 l 458 366 l 718 366 m 411 1034 q 328 1065 362 1034 q 294 1145 294 1097 q 328 1224 294 1192 q 411 1256 362 1256 q 494 1224 459 1256 q 528 1145 528 1192 q 494 1065 528 1097 q 411 1034 459 1034 m 764 1034 q 681 1065 715 1034 q 647 1145 647 1097 q 681 1224 647 1192 q 764 1256 715 1256 q 847 1224 813 1256 q 881 1145 881 1192 q 847 1065 881 1097 q 764 1034 813 1034 z "},"å":{"ha":1176,"x_min":6,"x_max":1170,"o":"m 796 128 l 380 128 l 337 0 l 6 0 l 363 972 l 513 972 q 447 1031 471 992 q 422 1118 422 1071 q 444 1201 422 1163 q 504 1262 466 1240 q 588 1284 542 1284 q 671 1262 634 1284 q 730 1201 708 1240 q 751 1118 751 1163 q 727 1031 751 1071 q 662 972 703 992 l 813 972 l 1170 0 l 839 0 l 796 128 m 588 1155 q 563 1146 573 1155 q 553 1120 553 1137 q 563 1094 553 1103 q 588 1086 572 1086 q 613 1094 603 1086 q 623 1116 623 1102 q 588 1155 623 1155 m 718 366 l 616 671 l 560 671 l 458 366 l 718 366 z "},"æ":{"ha":1617,"x_min":6,"x_max":1576,"o":"m 1021 715 l 1021 591 l 1556 591 l 1556 381 l 1021 381 l 1021 257 l 1576 257 l 1576 0 l 700 0 l 700 131 l 388 131 l 329 0 l 6 0 l 443 972 l 1576 972 l 1576 715 l 1021 715 m 700 366 l 700 705 l 645 705 l 493 366 l 700 366 z "},"ç":{"ha":1105,"x_min":23,"x_max":1082,"o":"m 569 244 q 704 284 650 244 q 777 403 757 323 l 1082 403 q 931 82 1061 185 q 611 -31 800 -22 l 601 -39 q 695 -77 655 -43 q 735 -172 735 -111 q 678 -281 735 -243 q 531 -319 622 -319 q 436 -309 485 -319 l 436 -187 q 508 -196 478 -196 q 550 -190 536 -196 q 565 -177 565 -184 q 549 -159 565 -168 q 502 -150 532 -150 q 436 -160 472 -150 l 436 -83 l 506 -30 q 252 50 361 -17 q 83 230 142 118 q 23 486 23 343 q 91 758 23 640 q 284 940 160 875 q 569 1005 407 1005 q 808 963 698 1005 q 992 825 918 921 q 1082 572 1067 728 l 777 572 q 704 689 757 650 q 569 728 650 728 q 454 698 506 728 q 372 613 402 668 q 341 486 341 558 q 372 359 341 414 q 454 274 402 304 q 569 244 506 244 z "},"è":{"ha":957,"x_min":41,"x_max":917,"o":"m 41 972 l 917 972 l 917 715 l 361 715 l 361 591 l 896 591 l 896 381 l 361 381 l 361 257 l 917 257 l 917 0 l 41 0 l 41 972 m 331 1030 l 248 1233 l 531 1233 l 615 1030 l 331 1030 z "},"é":{"ha":957,"x_min":41,"x_max":917,"o":"m 41 972 l 917 972 l 917 715 l 361 715 l 361 591 l 896 591 l 896 381 l 361 381 l 361 257 l 917 257 l 917 0 l 41 0 l 41 972 m 410 1233 l 693 1233 l 610 1030 l 326 1030 l 410 1233 z "},"ê":{"ha":957,"x_min":41,"x_max":917,"o":"m 41 972 l 917 972 l 917 715 l 361 715 l 361 591 l 896 591 l 896 381 l 361 381 l 361 257 l 917 257 l 917 0 l 41 0 l 41 972 m 277 1233 l 663 1233 l 816 1030 l 551 1030 l 502 1087 l 438 1087 l 389 1030 l 124 1030 l 277 1233 z "},"ë":{"ha":957,"x_min":41,"x_max":917,"o":"m 41 972 l 917 972 l 917 715 l 361 715 l 361 591 l 896 591 l 896 381 l 361 381 l 361 257 l 917 257 l 917 0 l 41 0 l 41 972 m 293 1034 q 210 1065 244 1034 q 176 1145 176 1097 q 210 1224 176 1192 q 293 1256 244 1256 q 376 1224 341 1256 q 410 1145 410 1192 q 376 1065 410 1097 q 293 1034 341 1034 m 646 1034 q 563 1065 597 1034 q 529 1145 529 1097 q 563 1224 529 1192 q 646 1256 597 1256 q 729 1224 694 1256 q 763 1145 763 1192 q 729 1065 763 1097 q 646 1034 694 1034 z "},"ì":{"ha":402,"x_min":-22,"x_max":361,"o":"m 41 972 l 361 972 l 361 0 l 41 0 l 41 972 m 61 1030 l -22 1233 l 262 1233 l 345 1030 l 61 1030 z "},"í":{"ha":402,"x_min":41,"x_max":424,"o":"m 41 972 l 361 972 l 361 0 l 41 0 l 41 972 m 140 1233 l 424 1233 l 340 1030 l 57 1030 l 140 1233 z "},"î":{"ha":402,"x_min":-146,"x_max":546,"o":"m 41 972 l 361 972 l 361 0 l 41 0 l 41 972 m 7 1233 l 394 1233 l 546 1030 l 281 1030 l 233 1087 l 168 1087 l 119 1030 l -146 1030 l 7 1233 z "},"ï":{"ha":402,"x_min":-94,"x_max":493,"o":"m 41 972 l 361 972 l 361 0 l 41 0 l 41 972 m 23 1034 q -60 1065 -25 1034 q -94 1145 -94 1097 q -60 1224 -94 1192 q 23 1256 -25 1256 q 106 1224 72 1256 q 140 1145 140 1192 q 106 1065 140 1097 q 23 1034 72 1034 m 376 1034 q 293 1065 328 1034 q 259 1145 259 1097 q 293 1224 259 1192 q 376 1256 328 1256 q 459 1224 425 1256 q 493 1145 493 1192 q 459 1065 493 1097 q 376 1034 425 1034 z "},"ð":{"ha":1160,"x_min":6,"x_max":1131,"o":"m 596 972 q 1004 842 877 972 q 1131 486 1131 712 q 1004 130 1131 260 q 596 0 877 0 l 108 0 l 108 367 l 6 367 l 6 600 l 108 600 l 108 972 l 596 972 m 596 269 q 752 322 694 269 q 809 486 809 375 q 752 651 809 598 q 596 704 696 704 l 429 704 l 429 600 l 593 600 l 593 367 l 429 367 l 429 269 l 596 269 z "},"ñ":{"ha":1113,"x_min":41,"x_max":1073,"o":"m 41 972 l 409 972 l 731 447 l 760 447 l 760 972 l 1073 972 l 1073 0 l 713 0 l 382 525 l 353 525 l 353 0 l 41 0 l 41 972 m 659 1028 q 598 1037 625 1028 q 532 1064 571 1046 q 478 1087 500 1080 q 432 1095 456 1095 q 381 1080 400 1095 q 360 1039 362 1066 l 273 1039 q 270 1078 270 1060 q 323 1200 270 1159 q 453 1242 377 1242 q 512 1233 485 1242 q 578 1206 539 1223 q 634 1182 612 1190 q 679 1175 655 1175 q 730 1189 711 1175 q 751 1230 749 1204 l 838 1230 q 841 1192 841 1209 q 788 1069 841 1111 q 659 1028 734 1028 z "},"ò":{"ha":1148,"x_min":23,"x_max":1125,"o":"m 574 -32 q 284 32 409 -32 q 91 215 159 97 q 23 486 23 332 q 91 758 23 640 q 284 940 159 875 q 574 1005 409 1005 q 865 940 740 1005 q 1057 758 990 875 q 1125 486 1125 640 q 1057 215 1125 332 q 865 32 990 97 q 574 -32 740 -32 m 574 244 q 692 273 639 244 q 775 356 744 302 q 807 486 807 411 q 775 616 807 561 q 692 699 744 670 q 574 728 639 728 q 457 699 509 728 q 373 616 404 670 q 341 486 341 561 q 373 356 341 411 q 457 273 404 302 q 574 244 509 244 m 435 1035 l 352 1237 l 635 1237 l 719 1035 l 435 1035 z "},"ó":{"ha":1148,"x_min":23,"x_max":1125,"o":"m 574 -32 q 284 32 409 -32 q 91 215 159 97 q 23 486 23 332 q 91 758 23 640 q 284 940 159 875 q 574 1005 409 1005 q 865 940 740 1005 q 1057 758 990 875 q 1125 486 1125 640 q 1057 215 1125 332 q 865 32 990 97 q 574 -32 740 -32 m 574 244 q 692 273 639 244 q 775 356 744 302 q 807 486 807 411 q 775 616 807 561 q 692 699 744 670 q 574 728 639 728 q 457 699 509 728 q 373 616 404 670 q 341 486 341 561 q 373 356 341 411 q 457 273 404 302 q 574 244 509 244 m 514 1237 l 797 1237 l 714 1035 l 431 1035 l 514 1237 z "},"ô":{"ha":1148,"x_min":23,"x_max":1125,"o":"m 574 -32 q 284 32 409 -32 q 91 215 159 97 q 23 486 23 332 q 91 758 23 640 q 284 940 159 875 q 574 1005 409 1005 q 865 940 740 1005 q 1057 758 990 875 q 1125 486 1125 640 q 1057 215 1125 332 q 865 32 990 97 q 574 -32 740 -32 m 574 244 q 692 273 639 244 q 775 356 744 302 q 807 486 807 411 q 775 616 807 561 q 692 699 744 670 q 574 728 639 728 q 457 699 509 728 q 373 616 404 670 q 341 486 341 561 q 373 356 341 411 q 457 273 404 302 q 574 244 509 244 m 381 1237 l 767 1237 l 920 1035 l 655 1035 l 606 1091 l 542 1091 l 493 1035 l 228 1035 l 381 1237 z "},"õ":{"ha":1148,"x_min":23,"x_max":1125,"o":"m 574 -32 q 284 32 409 -32 q 91 215 159 97 q 23 486 23 332 q 91 758 23 640 q 284 940 159 875 q 574 1005 409 1005 q 865 940 740 1005 q 1057 758 990 875 q 1125 486 1125 640 q 1057 215 1125 332 q 865 32 990 97 q 574 -32 740 -32 m 574 244 q 692 273 639 244 q 775 356 744 302 q 807 486 807 411 q 775 616 807 561 q 692 699 744 670 q 574 728 639 728 q 457 699 509 728 q 373 616 404 670 q 341 486 341 561 q 373 356 341 411 q 457 273 404 302 q 574 244 509 244 m 676 1032 q 615 1042 642 1032 q 550 1068 588 1051 q 495 1092 517 1084 q 449 1100 473 1100 q 399 1085 418 1100 q 377 1044 380 1071 l 291 1044 q 287 1082 287 1065 q 341 1205 287 1163 q 470 1247 395 1247 q 530 1237 502 1247 q 595 1211 557 1228 q 651 1187 630 1194 q 697 1179 672 1179 q 747 1194 728 1179 q 769 1235 766 1208 l 855 1235 q 859 1197 859 1214 q 805 1074 859 1116 q 676 1032 751 1032 z "},"ö":{"ha":1148,"x_min":23,"x_max":1125,"o":"m 574 -32 q 284 32 409 -32 q 91 215 159 97 q 23 486 23 332 q 91 758 23 640 q 284 940 159 875 q 574 1005 409 1005 q 865 940 740 1005 q 1057 758 990 875 q 1125 486 1125 640 q 1057 215 1125 332 q 865 32 990 97 q 574 -32 740 -32 m 574 244 q 692 273 639 244 q 775 356 744 302 q 807 486 807 411 q 775 616 807 561 q 692 699 744 670 q 574 728 639 728 q 457 699 509 728 q 373 616 404 670 q 341 486 341 561 q 373 356 341 411 q 457 273 404 302 q 574 244 509 244 m 397 1038 q 314 1070 348 1038 q 280 1149 280 1102 q 314 1229 280 1197 q 397 1260 348 1260 q 480 1229 446 1260 q 514 1149 514 1197 q 480 1070 514 1102 q 397 1038 446 1038 m 750 1038 q 667 1070 701 1038 q 633 1149 633 1102 q 667 1229 633 1197 q 750 1260 701 1260 q 833 1229 799 1260 q 867 1149 867 1197 q 833 1070 867 1102 q 750 1038 799 1038 z "},"÷":{"ha":843,"x_min":58,"x_max":785,"o":"m 418 672 q 349 691 381 672 q 299 741 317 709 q 280 808 280 772 q 299 876 280 844 q 349 926 317 907 q 418 944 381 944 q 487 926 455 944 q 537 876 519 907 q 556 808 556 844 q 537 741 556 772 q 487 691 519 709 q 418 672 455 672 m 58 597 l 785 597 l 785 376 l 58 376 l 58 597 m 418 22 q 349 41 381 22 q 299 90 317 59 q 280 157 280 122 q 299 225 280 193 q 349 275 317 257 q 418 294 381 294 q 487 275 455 294 q 537 225 519 257 q 556 157 556 193 q 537 90 556 122 q 487 41 519 59 q 418 22 455 22 z "},"ø":{"ha":1148,"x_min":23,"x_max":1125,"o":"m 873 936 q 1059 755 993 872 q 1125 486 1125 639 q 1057 215 1125 332 q 865 32 990 97 q 574 -32 740 -32 q 432 -19 500 -32 l 413 -59 l 220 -59 l 266 42 q 87 222 150 108 q 23 486 23 337 q 91 758 23 640 q 284 940 159 875 q 574 1005 409 1005 q 705 993 647 1005 l 723 1032 l 917 1032 l 873 936 m 341 486 q 396 323 341 389 l 583 728 l 574 728 q 457 699 509 728 q 373 616 404 670 q 341 486 341 561 m 574 244 q 692 273 639 244 q 775 356 744 302 q 807 486 807 411 q 791 583 807 539 q 744 659 774 627 l 553 245 q 574 244 560 244 z "},"ù":{"ha":1088,"x_min":41,"x_max":1047,"o":"m 544 -32 q 166 79 291 -32 q 41 424 41 190 l 41 972 l 363 972 l 363 432 q 407 287 363 338 q 544 236 451 236 q 682 287 637 236 q 727 432 727 338 l 727 972 l 1047 972 l 1047 426 q 922 79 1047 191 q 544 -32 797 -32 m 405 1030 l 322 1233 l 605 1233 l 689 1030 l 405 1030 z "},"ú":{"ha":1088,"x_min":41,"x_max":1047,"o":"m 544 -32 q 166 79 291 -32 q 41 424 41 190 l 41 972 l 363 972 l 363 432 q 407 287 363 338 q 544 236 451 236 q 682 287 637 236 q 727 432 727 338 l 727 972 l 1047 972 l 1047 426 q 922 79 1047 191 q 544 -32 797 -32 m 484 1233 l 767 1233 l 684 1030 l 400 1030 l 484 1233 z "},"û":{"ha":1088,"x_min":41,"x_max":1047,"o":"m 544 -32 q 166 79 291 -32 q 41 424 41 190 l 41 972 l 363 972 l 363 432 q 407 287 363 338 q 544 236 451 236 q 682 287 637 236 q 727 432 727 338 l 727 972 l 1047 972 l 1047 426 q 922 79 1047 191 q 544 -32 797 -32 m 351 1233 l 737 1233 l 890 1030 l 625 1030 l 576 1087 l 512 1087 l 463 1030 l 198 1030 l 351 1233 z "},"ü":{"ha":1088,"x_min":41,"x_max":1047,"o":"m 544 -32 q 166 79 291 -32 q 41 424 41 190 l 41 972 l 363 972 l 363 432 q 407 287 363 338 q 544 236 451 236 q 682 287 637 236 q 727 432 727 338 l 727 972 l 1047 972 l 1047 426 q 922 79 1047 191 q 544 -32 797 -32 m 367 1034 q 284 1065 318 1034 q 250 1145 250 1097 q 284 1224 250 1192 q 367 1256 318 1256 q 450 1224 416 1256 q 484 1145 484 1192 q 450 1065 484 1097 q 367 1034 416 1034 m 720 1034 q 637 1065 671 1034 q 603 1145 603 1097 q 637 1224 603 1192 q 720 1256 671 1256 q 803 1224 769 1256 q 837 1145 837 1192 q 803 1065 837 1097 q 720 1034 769 1034 z "},"ý":{"ha":1116,"x_min":0,"x_max":1116,"o":"m 718 302 l 718 0 l 397 0 l 397 303 l 0 972 l 337 972 l 545 606 l 571 606 l 779 972 l 1116 972 l 718 302 m 498 1233 l 781 1233 l 698 1030 l 414 1030 l 498 1233 z "},"þ":{"ha":1021,"x_min":41,"x_max":992,"o":"m 530 861 q 872 769 752 861 q 992 486 992 676 q 872 204 992 296 q 531 111 752 111 l 361 111 l 361 0 l 41 0 l 41 972 l 361 972 l 361 861 l 530 861 m 537 377 q 634 404 598 377 q 669 486 669 431 q 634 568 669 541 q 538 595 598 595 l 361 595 l 361 377 l 537 377 z "},"ÿ":{"ha":1116,"x_min":0,"x_max":1116,"o":"m 718 302 l 718 0 l 397 0 l 397 303 l 0 972 l 337 972 l 545 606 l 571 606 l 779 972 l 1116 972 l 718 302 m 381 1034 q 298 1065 332 1034 q 264 1145 264 1097 q 298 1224 264 1192 q 381 1256 332 1256 q 464 1224 429 1256 q 498 1145 498 1192 q 464 1065 498 1097 q 381 1034 429 1034 m 734 1034 q 651 1065 685 1034 q 617 1145 617 1097 q 651 1224 617 1192 q 734 1256 685 1256 q 817 1224 782 1256 q 851 1145 851 1192 q 817 1065 851 1097 q 734 1034 782 1034 z "},"Ā":{"ha":1176,"x_min":6,"x_max":1170,"o":"m 796 128 l 380 128 l 337 0 l 6 0 l 363 972 l 813 972 l 1170 0 l 839 0 l 796 128 m 718 366 l 616 671 l 560 671 l 458 366 l 718 366 m 322 1267 l 854 1267 l 854 1035 l 322 1035 l 322 1267 z "},"ā":{"ha":1176,"x_min":6,"x_max":1170,"o":"m 796 128 l 380 128 l 337 0 l 6 0 l 363 972 l 813 972 l 1170 0 l 839 0 l 796 128 m 718 366 l 616 671 l 560 671 l 458 366 l 718 366 m 322 1267 l 854 1267 l 854 1035 l 322 1035 l 322 1267 z "},"Ă":{"ha":1176,"x_min":6,"x_max":1170,"o":"m 796 128 l 380 128 l 337 0 l 6 0 l 363 972 l 813 972 l 1170 0 l 839 0 l 796 128 m 718 366 l 616 671 l 560 671 l 458 366 l 718 366 m 588 1030 q 427 1049 485 1030 q 343 1112 368 1068 q 319 1233 317 1156 l 512 1233 q 531 1178 510 1197 q 588 1160 551 1160 q 645 1178 625 1160 q 664 1233 666 1197 l 856 1233 q 833 1112 859 1156 q 749 1049 808 1068 q 588 1030 691 1030 z "},"ă":{"ha":1176,"x_min":6,"x_max":1170,"o":"m 796 128 l 380 128 l 337 0 l 6 0 l 363 972 l 813 972 l 1170 0 l 839 0 l 796 128 m 718 366 l 616 671 l 560 671 l 458 366 l 718 366 m 588 1030 q 427 1049 485 1030 q 343 1112 368 1068 q 319 1233 317 1156 l 512 1233 q 531 1178 510 1197 q 588 1160 551 1160 q 645 1178 625 1160 q 664 1233 666 1197 l 856 1233 q 833 1112 859 1156 q 749 1049 808 1068 q 588 1030 691 1030 z "},"Ą":{"ha":1176,"x_min":6,"x_max":1170,"o":"m 839 0 q 769 -17 789 0 q 749 -58 749 -35 q 808 -108 749 -109 l 808 -281 q 620 -241 704 -281 q 536 -103 536 -200 q 620 38 536 0 q 813 80 705 76 l 796 128 l 380 128 l 337 0 l 6 0 l 363 972 l 813 972 l 1170 0 l 839 0 m 718 366 l 616 671 l 560 671 l 458 366 l 718 366 z "},"ą":{"ha":1176,"x_min":6,"x_max":1170,"o":"m 839 0 q 769 -17 789 0 q 749 -58 749 -35 q 808 -108 749 -109 l 808 -281 q 620 -241 704 -281 q 536 -103 536 -200 q 620 38 536 0 q 813 80 705 76 l 796 128 l 380 128 l 337 0 l 6 0 l 363 972 l 813 972 l 1170 0 l 839 0 m 718 366 l 616 671 l 560 671 l 458 366 l 718 366 z "},"Ć":{"ha":1105,"x_min":23,"x_max":1082,"o":"m 569 -32 q 284 32 407 -32 q 91 215 160 97 q 23 486 23 332 q 91 758 23 640 q 284 940 160 875 q 569 1005 407 1005 q 808 963 698 1005 q 992 825 918 921 q 1082 572 1067 728 l 777 572 q 704 689 757 650 q 569 728 650 728 q 454 698 506 728 q 372 613 402 668 q 341 486 341 558 q 372 359 341 414 q 454 274 402 304 q 569 244 506 244 q 704 284 650 244 q 777 403 757 323 l 1082 403 q 917 70 1060 172 q 569 -32 773 -32 m 512 1233 l 795 1233 l 712 1030 l 428 1030 l 512 1233 z "},"ć":{"ha":1105,"x_min":23,"x_max":1082,"o":"m 569 -32 q 284 32 407 -32 q 91 215 160 97 q 23 486 23 332 q 91 758 23 640 q 284 940 160 875 q 569 1005 407 1005 q 808 963 698 1005 q 992 825 918 921 q 1082 572 1067 728 l 777 572 q 704 689 757 650 q 569 728 650 728 q 454 698 506 728 q 372 613 402 668 q 341 486 341 558 q 372 359 341 414 q 454 274 402 304 q 569 244 506 244 q 704 284 650 244 q 777 403 757 323 l 1082 403 q 917 70 1060 172 q 569 -32 773 -32 m 512 1233 l 795 1233 l 712 1030 l 428 1030 l 512 1233 z "},"Ċ":{"ha":1105,"x_min":23,"x_max":1082,"o":"m 569 -32 q 284 32 407 -32 q 91 215 160 97 q 23 486 23 332 q 91 758 23 640 q 284 940 160 875 q 569 1005 407 1005 q 808 963 698 1005 q 992 825 918 921 q 1082 572 1067 728 l 777 572 q 704 689 757 650 q 569 728 650 728 q 454 698 506 728 q 372 613 402 668 q 341 486 341 558 q 372 359 341 414 q 454 274 402 304 q 569 244 506 244 q 704 284 650 244 q 777 403 757 323 l 1082 403 q 917 70 1060 172 q 569 -32 773 -32 m 572 1034 q 489 1065 523 1034 q 455 1145 455 1097 q 489 1224 455 1192 q 572 1256 523 1256 q 655 1224 620 1256 q 689 1145 689 1192 q 655 1065 689 1097 q 572 1034 620 1034 z "},"ċ":{"ha":1105,"x_min":23,"x_max":1082,"o":"m 569 -32 q 284 32 407 -32 q 91 215 160 97 q 23 486 23 332 q 91 758 23 640 q 284 940 160 875 q 569 1005 407 1005 q 808 963 698 1005 q 992 825 918 921 q 1082 572 1067 728 l 777 572 q 704 689 757 650 q 569 728 650 728 q 454 698 506 728 q 372 613 402 668 q 341 486 341 558 q 372 359 341 414 q 454 274 402 304 q 569 244 506 244 q 704 284 650 244 q 777 403 757 323 l 1082 403 q 917 70 1060 172 q 569 -32 773 -32 m 572 1034 q 489 1065 523 1034 q 455 1145 455 1097 q 489 1224 455 1192 q 572 1256 523 1256 q 655 1224 620 1256 q 689 1145 689 1192 q 655 1065 689 1097 q 572 1034 620 1034 z "},"Č":{"ha":1105,"x_min":23,"x_max":1082,"o":"m 569 244 q 704 284 650 244 q 777 403 757 323 l 1082 403 q 917 70 1060 172 q 569 -32 773 -32 q 284 32 407 -32 q 91 215 160 97 q 23 486 23 332 q 76 729 23 622 q 226 905 128 836 q 454 995 323 973 l 381 995 l 228 1198 l 493 1198 l 542 1141 l 606 1141 l 655 1198 l 920 1198 l 767 995 l 688 995 q 956 867 848 970 q 1082 572 1064 764 l 777 572 q 704 689 757 650 q 569 728 650 728 q 454 698 506 728 q 372 613 402 668 q 341 486 341 558 q 372 359 341 414 q 454 274 402 304 q 569 244 506 244 z "},"č":{"ha":1105,"x_min":23,"x_max":1082,"o":"m 569 244 q 704 284 650 244 q 777 403 757 323 l 1082 403 q 917 70 1060 172 q 569 -32 773 -32 q 284 32 407 -32 q 91 215 160 97 q 23 486 23 332 q 76 729 23 622 q 226 905 128 836 q 454 995 323 973 l 381 995 l 228 1198 l 493 1198 l 542 1141 l 606 1141 l 655 1198 l 920 1198 l 767 995 l 688 995 q 956 867 848 970 q 1082 572 1064 764 l 777 572 q 704 689 757 650 q 569 728 650 728 q 454 698 506 728 q 372 613 402 668 q 341 486 341 558 q 372 359 341 414 q 454 274 402 304 q 569 244 506 244 z "},"Ď":{"ha":1093,"x_min":41,"x_max":1064,"o":"m 529 972 q 937 842 810 972 q 1064 486 1064 712 q 937 130 1064 260 q 529 0 810 0 l 41 0 l 41 972 l 529 972 m 529 269 q 685 322 627 269 q 742 486 742 375 q 685 651 742 598 q 529 704 628 704 l 362 704 l 362 269 l 529 269 m 458 1198 l 507 1141 l 572 1141 l 620 1198 l 885 1198 l 733 995 l 346 995 l 193 1198 l 458 1198 z "},"ď":{"ha":1093,"x_min":41,"x_max":1064,"o":"m 529 972 q 937 842 810 972 q 1064 486 1064 712 q 937 130 1064 260 q 529 0 810 0 l 41 0 l 41 972 l 529 972 m 529 269 q 685 322 627 269 q 742 486 742 375 q 685 651 742 598 q 529 704 628 704 l 362 704 l 362 269 l 529 269 m 458 1198 l 507 1141 l 572 1141 l 620 1198 l 885 1198 l 733 995 l 346 995 l 193 1198 l 458 1198 z "},"Đ":{"ha":1160,"x_min":6,"x_max":1131,"o":"m 596 972 q 1004 842 877 972 q 1131 486 1131 712 q 1004 130 1131 260 q 596 0 877 0 l 108 0 l 108 367 l 6 367 l 6 600 l 108 600 l 108 972 l 596 972 m 596 269 q 752 322 694 269 q 809 486 809 375 q 752 651 809 598 q 596 704 696 704 l 429 704 l 429 600 l 593 600 l 593 367 l 429 367 l 429 269 l 596 269 z "},"đ":{"ha":1160,"x_min":6,"x_max":1131,"o":"m 596 972 q 1004 842 877 972 q 1131 486 1131 712 q 1004 130 1131 260 q 596 0 877 0 l 108 0 l 108 367 l 6 367 l 6 600 l 108 600 l 108 972 l 596 972 m 596 269 q 752 322 694 269 q 809 486 809 375 q 752 651 809 598 q 596 704 696 704 l 429 704 l 429 600 l 593 600 l 593 367 l 429 367 l 429 269 l 596 269 z "},"Ē":{"ha":957,"x_min":41,"x_max":917,"o":"m 41 972 l 917 972 l 917 715 l 361 715 l 361 591 l 896 591 l 896 381 l 361 381 l 361 257 l 917 257 l 917 0 l 41 0 l 41 972 m 204 1267 l 736 1267 l 736 1035 l 204 1035 l 204 1267 z "},"ē":{"ha":957,"x_min":41,"x_max":917,"o":"m 41 972 l 917 972 l 917 715 l 361 715 l 361 591 l 896 591 l 896 381 l 361 381 l 361 257 l 917 257 l 917 0 l 41 0 l 41 972 m 204 1267 l 736 1267 l 736 1035 l 204 1035 l 204 1267 z "},"Ė":{"ha":957,"x_min":41,"x_max":917,"o":"m 41 972 l 917 972 l 917 715 l 361 715 l 361 591 l 896 591 l 896 381 l 361 381 l 361 257 l 917 257 l 917 0 l 41 0 l 41 972 m 470 1034 q 387 1065 421 1034 q 353 1145 353 1097 q 387 1224 353 1192 q 470 1256 421 1256 q 553 1224 519 1256 q 587 1145 587 1192 q 553 1065 587 1097 q 470 1034 519 1034 z "},"ė":{"ha":957,"x_min":41,"x_max":917,"o":"m 41 972 l 917 972 l 917 715 l 361 715 l 361 591 l 896 591 l 896 381 l 361 381 l 361 257 l 917 257 l 917 0 l 41 0 l 41 972 m 470 1034 q 387 1065 421 1034 q 353 1145 353 1097 q 387 1224 353 1192 q 470 1256 421 1256 q 553 1224 519 1256 q 587 1145 587 1192 q 553 1065 587 1097 q 470 1034 519 1034 z "},"Ę":{"ha":957,"x_min":41,"x_max":917,"o":"m 361 715 l 361 591 l 896 591 l 896 381 l 361 381 l 361 257 l 917 257 l 917 0 q 847 -17 867 0 q 826 -58 826 -35 q 885 -108 826 -109 l 885 -281 q 697 -241 781 -281 q 613 -103 613 -200 q 650 0 613 -41 l 41 0 l 41 972 l 917 972 l 917 715 l 361 715 z "},"ę":{"ha":957,"x_min":41,"x_max":917,"o":"m 361 715 l 361 591 l 896 591 l 896 381 l 361 381 l 361 257 l 917 257 l 917 0 q 847 -17 867 0 q 826 -58 826 -35 q 885 -108 826 -109 l 885 -281 q 697 -241 781 -281 q 613 -103 613 -200 q 650 0 613 -41 l 41 0 l 41 972 l 917 972 l 917 715 l 361 715 z "},"Ě":{"ha":957,"x_min":41,"x_max":917,"o":"m 41 972 l 917 972 l 917 715 l 361 715 l 361 591 l 896 591 l 896 381 l 361 381 l 361 257 l 917 257 l 917 0 l 41 0 l 41 972 m 391 1198 l 440 1141 l 505 1141 l 553 1198 l 818 1198 l 666 995 l 279 995 l 126 1198 l 391 1198 z "},"ě":{"ha":957,"x_min":41,"x_max":917,"o":"m 41 972 l 917 972 l 917 715 l 361 715 l 361 591 l 896 591 l 896 381 l 361 381 l 361 257 l 917 257 l 917 0 l 41 0 l 41 972 m 391 1198 l 440 1141 l 505 1141 l 553 1198 l 818 1198 l 666 995 l 279 995 l 126 1198 l 391 1198 z "},"Ğ":{"ha":1133,"x_min":23,"x_max":1087,"o":"m 1087 0 l 916 0 l 911 128 q 766 12 858 56 q 551 -32 674 -32 q 281 32 402 -32 q 92 215 161 97 q 23 486 23 333 q 91 758 23 640 q 286 940 160 875 q 579 1005 412 1005 q 807 965 699 1005 q 990 841 916 925 q 1082 632 1064 757 l 764 632 q 700 700 748 671 q 586 728 653 728 q 459 698 514 728 q 373 613 404 668 q 341 486 341 559 q 372 359 341 414 q 457 274 403 304 q 576 244 510 244 q 696 270 635 244 q 778 370 757 296 l 564 370 l 564 537 l 1087 537 l 1087 0 m 572 1030 q 410 1049 469 1030 q 326 1112 352 1068 q 303 1233 301 1156 l 495 1233 q 514 1178 494 1197 q 572 1160 535 1160 q 629 1178 609 1160 q 648 1233 649 1197 l 840 1233 q 817 1112 843 1156 q 733 1049 792 1068 q 572 1030 675 1030 z "},"ğ":{"ha":1133,"x_min":23,"x_max":1087,"o":"m 1087 0 l 916 0 l 911 128 q 766 12 858 56 q 551 -32 674 -32 q 281 32 402 -32 q 92 215 161 97 q 23 486 23 333 q 91 758 23 640 q 286 940 160 875 q 579 1005 412 1005 q 807 965 699 1005 q 990 841 916 925 q 1082 632 1064 757 l 764 632 q 700 700 748 671 q 586 728 653 728 q 459 698 514 728 q 373 613 404 668 q 341 486 341 559 q 372 359 341 414 q 457 274 403 304 q 576 244 510 244 q 696 270 635 244 q 778 370 757 296 l 564 370 l 564 537 l 1087 537 l 1087 0 m 572 1030 q 410 1049 469 1030 q 326 1112 352 1068 q 303 1233 301 1156 l 495 1233 q 514 1178 494 1197 q 572 1160 535 1160 q 629 1178 609 1160 q 648 1233 649 1197 l 840 1233 q 817 1112 843 1156 q 733 1049 792 1068 q 572 1030 675 1030 z "},"Ġ":{"ha":1133,"x_min":23,"x_max":1087,"o":"m 1087 0 l 916 0 l 911 128 q 766 12 858 56 q 551 -32 674 -32 q 281 32 402 -32 q 92 215 161 97 q 23 486 23 333 q 91 758 23 640 q 286 940 160 875 q 579 1005 412 1005 q 807 965 699 1005 q 990 841 916 925 q 1082 632 1064 757 l 764 632 q 700 700 748 671 q 586 728 653 728 q 459 698 514 728 q 373 613 404 668 q 341 486 341 559 q 372 359 341 414 q 457 274 403 304 q 576 244 510 244 q 696 270 635 244 q 778 370 757 296 l 564 370 l 564 537 l 1087 537 l 1087 0 m 572 1034 q 489 1065 523 1034 q 455 1145 455 1097 q 489 1224 455 1192 q 572 1256 523 1256 q 655 1224 620 1256 q 689 1145 689 1192 q 655 1065 689 1097 q 572 1034 620 1034 z "},"ġ":{"ha":1133,"x_min":23,"x_max":1087,"o":"m 1087 0 l 916 0 l 911 128 q 766 12 858 56 q 551 -32 674 -32 q 281 32 402 -32 q 92 215 161 97 q 23 486 23 333 q 91 758 23 640 q 286 940 160 875 q 579 1005 412 1005 q 807 965 699 1005 q 990 841 916 925 q 1082 632 1064 757 l 764 632 q 700 700 748 671 q 586 728 653 728 q 459 698 514 728 q 373 613 404 668 q 341 486 341 559 q 372 359 341 414 q 457 274 403 304 q 576 244 510 244 q 696 270 635 244 q 778 370 757 296 l 564 370 l 564 537 l 1087 537 l 1087 0 m 572 1034 q 489 1065 523 1034 q 455 1145 455 1097 q 489 1224 455 1192 q 572 1256 523 1256 q 655 1224 620 1256 q 689 1145 689 1192 q 655 1065 689 1097 q 572 1034 620 1034 z "},"Ģ":{"ha":1133,"x_min":23,"x_max":1087,"o":"m 1087 0 l 916 0 l 911 128 q 766 12 858 56 q 551 -32 674 -32 q 281 32 402 -32 q 92 215 161 97 q 23 486 23 333 q 91 758 23 640 q 286 940 160 875 q 579 1005 412 1005 q 807 965 699 1005 q 990 841 916 925 q 1082 632 1064 757 l 764 632 q 700 700 748 671 q 586 728 653 728 q 459 698 514 728 q 373 613 404 668 q 341 486 341 559 q 372 359 341 414 q 457 274 403 304 q 576 244 510 244 q 696 270 635 244 q 778 370 757 296 l 564 370 l 564 537 l 1087 537 l 1087 0 m 507 -544 q 520 -307 522 -434 l 411 -307 l 411 -76 l 736 -76 l 736 -127 q 718 -394 736 -285 q 676 -544 699 -502 l 507 -544 z "},"ģ":{"ha":1133,"x_min":23,"x_max":1087,"o":"m 1087 0 l 916 0 l 911 128 q 766 12 858 56 q 551 -32 674 -32 q 281 32 402 -32 q 92 215 161 97 q 23 486 23 333 q 91 758 23 640 q 286 940 160 875 q 579 1005 412 1005 q 807 965 699 1005 q 990 841 916 925 q 1082 632 1064 757 l 764 632 q 700 700 748 671 q 586 728 653 728 q 459 698 514 728 q 373 613 404 668 q 341 486 341 559 q 372 359 341 414 q 457 274 403 304 q 576 244 510 244 q 696 270 635 244 q 778 370 757 296 l 564 370 l 564 537 l 1087 537 l 1087 0 m 507 -544 q 520 -307 522 -434 l 411 -307 l 411 -76 l 736 -76 l 736 -127 q 718 -394 736 -285 q 676 -544 699 -502 l 507 -544 z "},"Ħ":{"ha":1100,"x_min":41,"x_max":1059,"o":"m 1059 972 l 1059 0 l 738 0 l 738 352 l 361 352 l 361 0 l 41 0 l 41 972 l 361 972 l 361 890 l 734 890 l 734 670 l 361 670 l 361 620 l 738 620 l 738 972 l 1059 972 z "},"ħ":{"ha":1100,"x_min":41,"x_max":1059,"o":"m 1059 972 l 1059 0 l 738 0 l 738 352 l 361 352 l 361 0 l 41 0 l 41 972 l 361 972 l 361 890 l 734 890 l 734 670 l 361 670 l 361 620 l 738 620 l 738 972 l 1059 972 z "},"Ī":{"ha":402,"x_min":-66,"x_max":466,"o":"m 41 972 l 361 972 l 361 0 l 41 0 l 41 972 m -66 1267 l 466 1267 l 466 1035 l -66 1035 l -66 1267 z "},"ī":{"ha":402,"x_min":-66,"x_max":466,"o":"m 41 972 l 361 972 l 361 0 l 41 0 l 41 972 m -66 1267 l 466 1267 l 466 1035 l -66 1035 l -66 1267 z "},"Į":{"ha":402,"x_min":41,"x_max":361,"o":"m 361 972 l 361 0 q 291 -17 311 0 q 271 -58 271 -35 q 330 -108 271 -109 l 330 -281 q 142 -241 226 -281 q 58 -103 58 -200 q 95 0 58 -41 l 41 0 l 41 972 l 361 972 z "},"į":{"ha":402,"x_min":41,"x_max":361,"o":"m 361 972 l 361 0 q 291 -17 311 0 q 271 -58 271 -35 q 330 -108 271 -109 l 330 -281 q 142 -241 226 -281 q 58 -103 58 -200 q 95 0 58 -41 l 41 0 l 41 972 l 361 972 z "},"İ":{"ha":402,"x_min":41,"x_max":361,"o":"m 41 972 l 361 972 l 361 0 l 41 0 l 41 972 m 200 1034 q 117 1065 152 1034 q 83 1145 83 1097 q 117 1224 83 1192 q 200 1256 152 1256 q 283 1224 249 1256 q 317 1145 317 1192 q 283 1065 317 1097 q 200 1034 249 1034 z "},"ı":{"ha":402,"x_min":41,"x_max":361,"o":"m 41 972 l 361 972 l 361 0 l 41 0 l 41 972 z "},"Ĳ":{"ha":1359,"x_min":41,"x_max":1318,"o":"m 41 972 l 361 972 l 361 0 l 41 0 l 41 972 m 865 -32 q 539 60 654 -32 q 427 380 424 153 l 747 380 q 872 240 745 240 q 998 407 998 240 l 998 972 l 1318 972 l 1318 424 q 1265 155 1318 256 q 1112 11 1212 54 q 865 -32 1013 -32 z "},"Ķ":{"ha":1095,"x_min":41,"x_max":1101,"o":"m 773 0 l 514 346 l 493 346 l 360 204 l 360 0 l 41 0 l 41 972 l 360 972 l 360 587 l 381 587 l 731 972 l 1088 972 l 693 539 l 1101 0 l 773 0 m 491 -544 q 503 -307 506 -434 l 395 -307 l 395 -76 l 720 -76 l 720 -127 q 701 -394 720 -285 q 660 -544 683 -502 l 491 -544 z "},"ķ":{"ha":1095,"x_min":41,"x_max":1101,"o":"m 773 0 l 514 346 l 493 346 l 360 204 l 360 0 l 41 0 l 41 972 l 360 972 l 360 587 l 381 587 l 731 972 l 1088 972 l 693 539 l 1101 0 l 773 0 m 491 -544 q 503 -307 506 -434 l 395 -307 l 395 -76 l 720 -76 l 720 -127 q 701 -394 720 -285 q 660 -544 683 -502 l 491 -544 z "},"Ĺ":{"ha":920,"x_min":41,"x_max":880,"o":"m 41 972 l 361 972 l 361 267 l 880 267 l 880 0 l 41 0 l 41 972 m 124 1221 l 407 1221 l 324 1019 l 41 1019 l 124 1221 z "},"ĺ":{"ha":920,"x_min":41,"x_max":880,"o":"m 41 972 l 361 972 l 361 267 l 880 267 l 880 0 l 41 0 l 41 972 m 124 1221 l 407 1221 l 324 1019 l 41 1019 l 124 1221 z "},"Ļ":{"ha":920,"x_min":41,"x_max":880,"o":"m 41 972 l 361 972 l 361 267 l 880 267 l 880 0 l 41 0 l 41 972 m 395 -544 q 407 -307 410 -434 l 299 -307 l 299 -76 l 624 -76 l 624 -127 q 605 -394 624 -285 q 564 -544 587 -502 l 395 -544 z "},"ļ":{"ha":920,"x_min":41,"x_max":880,"o":"m 41 972 l 361 972 l 361 267 l 880 267 l 880 0 l 41 0 l 41 972 m 395 -544 q 407 -307 410 -434 l 299 -307 l 299 -76 l 624 -76 l 624 -127 q 605 -394 624 -285 q 564 -544 587 -502 l 395 -544 z "},"Ľ":{"ha":920,"x_min":41,"x_max":880,"o":"m 41 972 l 361 972 l 361 267 l 880 267 l 880 0 l 41 0 l 41 972 m 579 429 q 594 705 596 551 l 468 705 l 468 972 l 845 972 l 845 913 q 823 605 845 731 q 775 429 802 479 l 579 429 z "},"ľ":{"ha":920,"x_min":41,"x_max":880,"o":"m 41 972 l 361 972 l 361 267 l 880 267 l 880 0 l 41 0 l 41 972 m 579 429 q 594 705 596 551 l 468 705 l 468 972 l 845 972 l 845 913 q 823 605 845 731 q 775 429 802 479 l 579 429 z "},"Ŀ":{"ha":920,"x_min":41,"x_max":880,"o":"m 41 972 l 361 972 l 361 267 l 880 267 l 880 0 l 41 0 l 41 972 m 639 454 q 560 475 596 454 q 501 533 523 497 q 479 611 479 569 q 501 689 479 653 q 560 747 523 726 q 639 769 596 769 q 718 747 682 769 q 777 689 755 726 q 799 611 799 653 q 777 533 799 569 q 718 475 755 497 q 639 454 682 454 z "},"Ł":{"ha":962,"x_min":0,"x_max":921,"o":"m 921 267 l 921 0 l 82 0 l 82 242 l 0 179 l 0 409 l 82 471 l 82 972 l 403 972 l 403 716 l 565 840 l 565 611 l 403 487 l 403 267 l 921 267 z "},"ł":{"ha":962,"x_min":0,"x_max":921,"o":"m 921 267 l 921 0 l 82 0 l 82 242 l 0 179 l 0 409 l 82 471 l 82 972 l 403 972 l 403 716 l 565 840 l 565 611 l 403 487 l 403 267 l 921 267 z "},"Ń":{"ha":1113,"x_min":41,"x_max":1073,"o":"m 41 972 l 409 972 l 731 447 l 760 447 l 760 972 l 1073 972 l 1073 0 l 713 0 l 382 525 l 353 525 l 353 0 l 41 0 l 41 972 m 497 1233 l 780 1233 l 697 1030 l 413 1030 l 497 1233 z "},"ń":{"ha":1113,"x_min":41,"x_max":1073,"o":"m 41 972 l 409 972 l 731 447 l 760 447 l 760 972 l 1073 972 l 1073 0 l 713 0 l 382 525 l 353 525 l 353 0 l 41 0 l 41 972 m 497 1233 l 780 1233 l 697 1030 l 413 1030 l 497 1233 z "},"Ņ":{"ha":1113,"x_min":41,"x_max":1073,"o":"m 41 972 l 409 972 l 731 447 l 760 447 l 760 972 l 1073 972 l 1073 0 l 713 0 l 382 525 l 353 525 l 353 0 l 41 0 l 41 972 m 492 -544 q 505 -307 507 -434 l 396 -307 l 396 -76 l 721 -76 l 721 -127 q 703 -394 721 -285 q 661 -544 684 -502 l 492 -544 z "},"ņ":{"ha":1113,"x_min":41,"x_max":1073,"o":"m 41 972 l 409 972 l 731 447 l 760 447 l 760 972 l 1073 972 l 1073 0 l 713 0 l 382 525 l 353 525 l 353 0 l 41 0 l 41 972 m 492 -544 q 505 -307 507 -434 l 396 -307 l 396 -76 l 721 -76 l 721 -127 q 703 -394 721 -285 q 661 -544 684 -502 l 492 -544 z "},"Ň":{"ha":1113,"x_min":41,"x_max":1073,"o":"m 41 972 l 409 972 l 731 447 l 760 447 l 760 972 l 1073 972 l 1073 0 l 713 0 l 382 525 l 353 525 l 353 0 l 41 0 l 41 972 m 478 1198 l 527 1141 l 591 1141 l 640 1198 l 905 1198 l 752 995 l 366 995 l 213 1198 l 478 1198 z "},"ň":{"ha":1113,"x_min":41,"x_max":1073,"o":"m 41 972 l 409 972 l 731 447 l 760 447 l 760 972 l 1073 972 l 1073 0 l 713 0 l 382 525 l 353 525 l 353 0 l 41 0 l 41 972 m 478 1198 l 527 1141 l 591 1141 l 640 1198 l 905 1198 l 752 995 l 366 995 l 213 1198 l 478 1198 z "},"Ŋ":{"ha":1113,"x_min":41,"x_max":1073,"o":"m 1073 972 l 1073 0 q 957 -260 1072 -176 q 631 -344 843 -344 l 635 -75 q 696 -72 671 -75 q 740 -53 720 -68 q 760 -2 760 -37 l 760 0 l 713 0 l 382 525 l 353 525 l 353 0 l 41 0 l 41 972 l 409 972 l 731 447 l 760 447 l 760 972 l 1073 972 z "},"ŋ":{"ha":1113,"x_min":41,"x_max":1073,"o":"m 1073 972 l 1073 0 q 957 -260 1072 -176 q 631 -344 843 -344 l 635 -75 q 696 -72 671 -75 q 740 -53 720 -68 q 760 -2 760 -37 l 760 0 l 713 0 l 382 525 l 353 525 l 353 0 l 41 0 l 41 972 l 409 972 l 731 447 l 760 447 l 760 972 l 1073 972 z "},"Ō":{"ha":1148,"x_min":23,"x_max":1125,"o":"m 574 -32 q 284 32 409 -32 q 91 215 159 97 q 23 486 23 332 q 91 758 23 640 q 284 940 159 875 q 574 1005 409 1005 q 865 940 740 1005 q 1057 758 990 875 q 1125 486 1125 640 q 1057 215 1125 332 q 865 32 990 97 q 574 -32 740 -32 m 574 244 q 692 273 639 244 q 775 356 744 302 q 807 486 807 411 q 775 616 807 561 q 692 699 744 670 q 574 728 639 728 q 457 699 509 728 q 373 616 404 670 q 341 486 341 561 q 373 356 341 411 q 457 273 404 302 q 574 244 509 244 m 308 1272 l 840 1272 l 840 1039 l 308 1039 l 308 1272 z "},"ō":{"ha":1148,"x_min":23,"x_max":1125,"o":"m 574 -32 q 284 32 409 -32 q 91 215 159 97 q 23 486 23 332 q 91 758 23 640 q 284 940 159 875 q 574 1005 409 1005 q 865 940 740 1005 q 1057 758 990 875 q 1125 486 1125 640 q 1057 215 1125 332 q 865 32 990 97 q 574 -32 740 -32 m 574 244 q 692 273 639 244 q 775 356 744 302 q 807 486 807 411 q 775 616 807 561 q 692 699 744 670 q 574 728 639 728 q 457 699 509 728 q 373 616 404 670 q 341 486 341 561 q 373 356 341 411 q 457 273 404 302 q 574 244 509 244 m 308 1272 l 840 1272 l 840 1039 l 308 1039 l 308 1272 z "},"Ő":{"ha":1148,"x_min":23,"x_max":1125,"o":"m 574 -32 q 284 32 409 -32 q 91 215 159 97 q 23 486 23 332 q 91 758 23 640 q 284 940 159 875 q 574 1005 409 1005 q 865 940 740 1005 q 1057 758 990 875 q 1125 486 1125 640 q 1057 215 1125 332 q 865 32 990 97 q 574 -32 740 -32 m 574 244 q 692 273 639 244 q 775 356 744 302 q 807 486 807 411 q 775 616 807 561 q 692 699 744 670 q 574 728 639 728 q 457 699 509 728 q 373 616 404 670 q 341 486 341 561 q 373 356 341 411 q 457 273 404 302 q 574 244 509 244 m 654 1244 l 938 1244 l 854 1042 l 571 1042 l 654 1244 m 322 1244 l 605 1244 l 522 1042 l 238 1042 l 322 1244 z "},"ő":{"ha":1148,"x_min":23,"x_max":1125,"o":"m 574 -32 q 284 32 409 -32 q 91 215 159 97 q 23 486 23 332 q 91 758 23 640 q 284 940 159 875 q 574 1005 409 1005 q 865 940 740 1005 q 1057 758 990 875 q 1125 486 1125 640 q 1057 215 1125 332 q 865 32 990 97 q 574 -32 740 -32 m 574 244 q 692 273 639 244 q 775 356 744 302 q 807 486 807 411 q 775 616 807 561 q 692 699 744 670 q 574 728 639 728 q 457 699 509 728 q 373 616 404 670 q 341 486 341 561 q 373 356 341 411 q 457 273 404 302 q 574 244 509 244 m 654 1244 l 938 1244 l 854 1042 l 571 1042 l 654 1244 m 322 1244 l 605 1244 l 522 1042 l 238 1042 l 322 1244 z "},"Œ":{"ha":1722,"x_min":23,"x_max":1682,"o":"m 1126 715 l 1126 591 l 1661 591 l 1661 381 l 1126 381 l 1126 257 l 1682 257 l 1682 0 l 806 0 l 806 7 q 574 -32 700 -32 q 284 32 409 -32 q 91 215 159 97 q 23 486 23 332 q 91 758 23 640 q 284 940 159 875 q 574 1005 409 1005 q 806 965 700 1005 l 806 972 l 1682 972 l 1682 715 l 1126 715 m 574 244 q 685 270 634 244 q 768 344 736 295 q 806 458 800 392 l 806 514 q 768 628 800 580 q 685 703 736 677 q 574 728 634 728 q 457 699 509 728 q 373 616 404 670 q 341 486 341 561 q 373 356 341 411 q 457 273 404 302 q 574 244 509 244 z "},"œ":{"ha":1722,"x_min":23,"x_max":1682,"o":"m 1126 715 l 1126 591 l 1661 591 l 1661 381 l 1126 381 l 1126 257 l 1682 257 l 1682 0 l 806 0 l 806 7 q 574 -32 700 -32 q 284 32 409 -32 q 91 215 159 97 q 23 486 23 332 q 91 758 23 640 q 284 940 159 875 q 574 1005 409 1005 q 806 965 700 1005 l 806 972 l 1682 972 l 1682 715 l 1126 715 m 574 244 q 685 270 634 244 q 768 344 736 295 q 806 458 800 392 l 806 514 q 768 628 800 580 q 685 703 736 677 q 574 728 634 728 q 457 699 509 728 q 373 616 404 670 q 341 486 341 561 q 373 356 341 411 q 457 273 404 302 q 574 244 509 244 z "},"Ŕ":{"ha":1074,"x_min":41,"x_max":1051,"o":"m 736 0 l 604 251 l 361 251 l 361 0 l 41 0 l 41 972 l 597 972 q 911 881 803 972 q 1019 601 1019 789 q 981 436 1019 507 q 877 319 943 366 l 1051 0 l 736 0 m 361 491 l 575 491 q 667 519 635 491 q 698 598 698 546 q 667 678 698 650 q 575 706 635 706 l 361 706 l 361 491 m 466 1233 l 750 1233 l 667 1030 l 383 1030 l 466 1233 z "},"ŕ":{"ha":1074,"x_min":41,"x_max":1051,"o":"m 736 0 l 604 251 l 361 251 l 361 0 l 41 0 l 41 972 l 597 972 q 911 881 803 972 q 1019 601 1019 789 q 981 436 1019 507 q 877 319 943 366 l 1051 0 l 736 0 m 361 491 l 575 491 q 667 519 635 491 q 698 598 698 546 q 667 678 698 650 q 575 706 635 706 l 361 706 l 361 491 m 466 1233 l 750 1233 l 667 1030 l 383 1030 l 466 1233 z "},"Ŗ":{"ha":1074,"x_min":41,"x_max":1051,"o":"m 736 0 l 604 251 l 361 251 l 361 0 l 41 0 l 41 972 l 597 972 q 911 881 803 972 q 1019 601 1019 789 q 981 436 1019 507 q 877 319 943 366 l 1051 0 l 736 0 m 361 491 l 575 491 q 667 519 635 491 q 698 598 698 546 q 667 678 698 650 q 575 706 635 706 l 361 706 l 361 491 m 462 -544 q 475 -307 477 -434 l 366 -307 l 366 -76 l 691 -76 l 691 -127 q 672 -394 691 -285 q 631 -544 654 -502 l 462 -544 z "},"ŗ":{"ha":1074,"x_min":41,"x_max":1051,"o":"m 736 0 l 604 251 l 361 251 l 361 0 l 41 0 l 41 972 l 597 972 q 911 881 803 972 q 1019 601 1019 789 q 981 436 1019 507 q 877 319 943 366 l 1051 0 l 736 0 m 361 491 l 575 491 q 667 519 635 491 q 698 598 698 546 q 667 678 698 650 q 575 706 635 706 l 361 706 l 361 491 m 462 -544 q 475 -307 477 -434 l 366 -307 l 366 -76 l 691 -76 l 691 -127 q 672 -394 691 -285 q 631 -544 654 -502 l 462 -544 z "},"Ř":{"ha":1074,"x_min":41,"x_max":1051,"o":"m 736 0 l 604 251 l 361 251 l 361 0 l 41 0 l 41 972 l 597 972 q 911 881 803 972 q 1019 601 1019 789 q 981 436 1019 507 q 877 319 943 366 l 1051 0 l 736 0 m 361 491 l 575 491 q 667 519 635 491 q 698 598 698 546 q 667 678 698 650 q 575 706 635 706 l 361 706 l 361 491 m 448 1198 l 497 1141 l 561 1141 l 610 1198 l 875 1198 l 722 995 l 336 995 l 183 1198 l 448 1198 z "},"ř":{"ha":1074,"x_min":41,"x_max":1051,"o":"m 736 0 l 604 251 l 361 251 l 361 0 l 41 0 l 41 972 l 597 972 q 911 881 803 972 q 1019 601 1019 789 q 981 436 1019 507 q 877 319 943 366 l 1051 0 l 736 0 m 361 491 l 575 491 q 667 519 635 491 q 698 598 698 546 q 667 678 698 650 q 575 706 635 706 l 361 706 l 361 491 m 448 1198 l 497 1141 l 561 1141 l 610 1198 l 875 1198 l 722 995 l 336 995 l 183 1198 l 448 1198 z "},"Ś":{"ha":1022,"x_min":12,"x_max":1001,"o":"m 509 -32 q 131 52 251 -32 q 17 325 12 137 l 306 325 q 356 245 308 273 q 509 218 405 218 q 639 240 595 218 q 683 296 683 262 q 659 344 683 324 q 571 374 635 365 l 446 394 l 418 398 q 222 440 297 417 q 94 524 147 464 q 41 694 41 584 q 159 923 41 841 q 506 1005 278 1005 q 856 925 734 1005 q 973 649 978 845 l 688 649 q 499 755 669 755 q 385 734 422 755 q 348 678 348 713 q 369 633 348 653 q 440 605 389 613 l 543 588 l 609 578 q 812 536 734 559 q 946 453 890 513 q 1001 284 1001 394 q 509 -32 1001 -32 m 454 1233 l 737 1233 l 654 1030 l 370 1030 l 454 1233 z "},"ś":{"ha":1022,"x_min":12,"x_max":1001,"o":"m 509 -32 q 131 52 251 -32 q 17 325 12 137 l 306 325 q 356 245 308 273 q 509 218 405 218 q 639 240 595 218 q 683 296 683 262 q 659 344 683 324 q 571 374 635 365 l 446 394 l 418 398 q 222 440 297 417 q 94 524 147 464 q 41 694 41 584 q 159 923 41 841 q 506 1005 278 1005 q 856 925 734 1005 q 973 649 978 845 l 688 649 q 499 755 669 755 q 385 734 422 755 q 348 678 348 713 q 369 633 348 653 q 440 605 389 613 l 543 588 l 609 578 q 812 536 734 559 q 946 453 890 513 q 1001 284 1001 394 q 509 -32 1001 -32 m 454 1233 l 737 1233 l 654 1030 l 370 1030 l 454 1233 z "},"Ş":{"ha":1022,"x_min":12,"x_max":1001,"o":"m 1001 284 q 552 -31 1001 -20 l 543 -39 q 637 -77 597 -43 q 677 -172 677 -111 q 620 -281 677 -243 q 473 -319 564 -319 q 378 -309 427 -319 l 378 -187 q 450 -196 420 -196 q 492 -190 478 -196 q 507 -177 507 -184 q 491 -159 507 -168 q 444 -150 475 -150 q 378 -160 414 -150 l 378 -83 l 447 -31 q 117 64 222 -22 q 17 325 12 149 l 306 325 q 356 245 308 273 q 509 218 405 218 q 639 240 595 218 q 683 296 683 262 q 659 344 683 324 q 571 374 635 365 l 446 394 l 418 398 q 222 440 297 417 q 94 524 147 464 q 41 694 41 584 q 159 923 41 841 q 506 1005 278 1005 q 856 925 734 1005 q 973 649 978 845 l 688 649 q 499 755 669 755 q 385 734 422 755 q 348 678 348 713 q 369 633 348 653 q 440 605 389 613 l 543 588 l 609 578 q 812 536 734 559 q 946 453 890 513 q 1001 284 1001 394 z "},"ş":{"ha":1022,"x_min":12,"x_max":1001,"o":"m 1001 284 q 552 -31 1001 -20 l 543 -39 q 637 -77 597 -43 q 677 -172 677 -111 q 620 -281 677 -243 q 473 -319 564 -319 q 378 -309 427 -319 l 378 -187 q 450 -196 420 -196 q 492 -190 478 -196 q 507 -177 507 -184 q 491 -159 507 -168 q 444 -150 475 -150 q 378 -160 414 -150 l 378 -83 l 447 -31 q 117 64 222 -22 q 17 325 12 149 l 306 325 q 356 245 308 273 q 509 218 405 218 q 639 240 595 218 q 683 296 683 262 q 659 344 683 324 q 571 374 635 365 l 446 394 l 418 398 q 222 440 297 417 q 94 524 147 464 q 41 694 41 584 q 159 923 41 841 q 506 1005 278 1005 q 856 925 734 1005 q 973 649 978 845 l 688 649 q 499 755 669 755 q 385 734 422 755 q 348 678 348 713 q 369 633 348 653 q 440 605 389 613 l 543 588 l 609 578 q 812 536 734 559 q 946 453 890 513 q 1001 284 1001 394 z "},"Š":{"ha":1022,"x_min":12,"x_max":1001,"o":"m 609 578 q 812 536 734 559 q 946 453 890 513 q 1001 284 1001 394 q 509 -32 1001 -32 q 131 52 251 -32 q 17 325 12 137 l 306 325 q 356 245 308 273 q 509 218 405 218 q 639 240 595 218 q 683 296 683 262 q 659 344 683 324 q 571 374 635 365 l 446 394 l 418 398 q 222 440 297 417 q 94 524 147 464 q 41 694 41 584 q 123 895 41 817 q 367 995 206 972 l 323 995 l 170 1198 l 435 1198 l 484 1141 l 549 1141 l 597 1198 l 862 1198 l 709 995 l 655 995 q 894 892 811 973 q 973 649 977 810 l 688 649 q 499 755 669 755 q 385 734 422 755 q 348 678 348 713 q 369 633 348 653 q 440 605 389 613 l 543 588 l 609 578 z "},"š":{"ha":1022,"x_min":12,"x_max":1001,"o":"m 609 578 q 812 536 734 559 q 946 453 890 513 q 1001 284 1001 394 q 509 -32 1001 -32 q 131 52 251 -32 q 17 325 12 137 l 306 325 q 356 245 308 273 q 509 218 405 218 q 639 240 595 218 q 683 296 683 262 q 659 344 683 324 q 571 374 635 365 l 446 394 l 418 398 q 222 440 297 417 q 94 524 147 464 q 41 694 41 584 q 123 895 41 817 q 367 995 206 972 l 323 995 l 170 1198 l 435 1198 l 484 1141 l 549 1141 l 597 1198 l 862 1198 l 709 995 l 655 995 q 894 892 811 973 q 973 649 977 810 l 688 649 q 499 755 669 755 q 385 734 422 755 q 348 678 348 713 q 369 633 348 653 q 440 605 389 613 l 543 588 l 609 578 z "},"Ţ":{"ha":1089,"x_min":35,"x_max":1054,"o":"m 1054 705 l 705 705 l 705 0 l 384 0 l 384 705 l 35 705 l 35 972 l 1054 972 l 1054 705 m 574 -39 q 668 -77 628 -43 q 708 -172 708 -111 q 652 -281 708 -243 q 505 -319 595 -319 q 410 -309 458 -319 l 410 -187 q 481 -196 451 -196 q 524 -190 509 -196 q 538 -177 538 -184 q 522 -159 538 -168 q 476 -150 506 -150 q 410 -160 446 -150 l 410 -83 l 519 0 l 626 0 l 574 -39 z "},"ţ":{"ha":1089,"x_min":35,"x_max":1054,"o":"m 1054 705 l 705 705 l 705 0 l 384 0 l 384 705 l 35 705 l 35 972 l 1054 972 l 1054 705 m 574 -39 q 668 -77 628 -43 q 708 -172 708 -111 q 652 -281 708 -243 q 505 -319 595 -319 q 410 -309 458 -319 l 410 -187 q 481 -196 451 -196 q 524 -190 509 -196 q 538 -177 538 -184 q 522 -159 538 -168 q 476 -150 506 -150 q 410 -160 446 -150 l 410 -83 l 519 0 l 626 0 l 574 -39 z "},"Ť":{"ha":1089,"x_min":35,"x_max":1054,"o":"m 1054 705 l 705 705 l 705 0 l 384 0 l 384 705 l 35 705 l 35 972 l 1054 972 l 1054 705 m 466 1198 l 515 1141 l 580 1141 l 628 1198 l 894 1198 l 741 995 l 354 995 l 201 1198 l 466 1198 z "},"ť":{"ha":1089,"x_min":35,"x_max":1054,"o":"m 1054 705 l 705 705 l 705 0 l 384 0 l 384 705 l 35 705 l 35 972 l 1054 972 l 1054 705 m 466 1198 l 515 1141 l 580 1141 l 628 1198 l 894 1198 l 741 995 l 354 995 l 201 1198 l 466 1198 z "},"Ŧ":{"ha":1089,"x_min":35,"x_max":1054,"o":"m 705 705 l 705 552 l 959 552 l 959 319 l 705 319 l 705 0 l 384 0 l 384 319 l 133 319 l 133 552 l 384 552 l 384 705 l 35 705 l 35 972 l 1054 972 l 1054 705 l 705 705 z "},"ŧ":{"ha":1089,"x_min":35,"x_max":1054,"o":"m 705 705 l 705 552 l 959 552 l 959 319 l 705 319 l 705 0 l 384 0 l 384 319 l 133 319 l 133 552 l 384 552 l 384 705 l 35 705 l 35 972 l 1054 972 l 1054 705 l 705 705 z "},"Ū":{"ha":1088,"x_min":41,"x_max":1047,"o":"m 544 -32 q 166 79 291 -32 q 41 424 41 190 l 41 972 l 363 972 l 363 432 q 407 287 363 338 q 544 236 451 236 q 682 287 637 236 q 727 432 727 338 l 727 972 l 1047 972 l 1047 426 q 922 79 1047 191 q 544 -32 797 -32 m 278 1267 l 810 1267 l 810 1035 l 278 1035 l 278 1267 z "},"ū":{"ha":1088,"x_min":41,"x_max":1047,"o":"m 544 -32 q 166 79 291 -32 q 41 424 41 190 l 41 972 l 363 972 l 363 432 q 407 287 363 338 q 544 236 451 236 q 682 287 637 236 q 727 432 727 338 l 727 972 l 1047 972 l 1047 426 q 922 79 1047 191 q 544 -32 797 -32 m 278 1267 l 810 1267 l 810 1035 l 278 1035 l 278 1267 z "},"Ŭ":{"ha":1088,"x_min":41,"x_max":1047,"o":"m 544 -32 q 166 79 291 -32 q 41 424 41 190 l 41 972 l 363 972 l 363 432 q 407 287 363 338 q 544 236 451 236 q 682 287 637 236 q 727 432 727 338 l 727 972 l 1047 972 l 1047 426 q 922 79 1047 191 q 544 -32 797 -32 m 544 1030 q 383 1049 441 1030 q 299 1112 324 1068 q 275 1233 273 1156 l 468 1233 q 487 1178 466 1197 q 544 1160 507 1160 q 601 1178 581 1160 q 620 1233 622 1197 l 813 1233 q 789 1112 815 1156 q 705 1049 764 1068 q 544 1030 647 1030 z "},"ŭ":{"ha":1088,"x_min":41,"x_max":1047,"o":"m 544 -32 q 166 79 291 -32 q 41 424 41 190 l 41 972 l 363 972 l 363 432 q 407 287 363 338 q 544 236 451 236 q 682 287 637 236 q 727 432 727 338 l 727 972 l 1047 972 l 1047 426 q 922 79 1047 191 q 544 -32 797 -32 m 544 1030 q 383 1049 441 1030 q 299 1112 324 1068 q 275 1233 273 1156 l 468 1233 q 487 1178 466 1197 q 544 1160 507 1160 q 601 1178 581 1160 q 620 1233 622 1197 l 813 1233 q 789 1112 815 1156 q 705 1049 764 1068 q 544 1030 647 1030 z "},"Ů":{"ha":1088,"x_min":41,"x_max":1047,"o":"m 544 -32 q 166 79 291 -32 q 41 424 41 190 l 41 972 l 363 972 l 363 432 q 407 287 363 338 q 544 236 451 236 q 682 287 637 236 q 727 432 727 338 l 727 972 l 1047 972 l 1047 426 q 922 79 1047 191 q 544 -32 797 -32 m 544 955 q 460 977 498 955 q 400 1036 422 999 q 378 1118 378 1074 q 400 1201 378 1163 q 460 1262 422 1240 q 544 1284 498 1284 q 627 1262 590 1284 q 686 1201 664 1240 q 707 1118 707 1163 q 686 1036 707 1074 q 627 977 664 999 q 544 955 590 955 m 544 1086 q 569 1094 559 1086 q 579 1116 579 1102 q 544 1155 579 1155 q 519 1146 529 1155 q 509 1120 509 1137 q 519 1094 509 1103 q 544 1086 528 1086 z "},"ů":{"ha":1088,"x_min":41,"x_max":1047,"o":"m 544 -32 q 166 79 291 -32 q 41 424 41 190 l 41 972 l 363 972 l 363 432 q 407 287 363 338 q 544 236 451 236 q 682 287 637 236 q 727 432 727 338 l 727 972 l 1047 972 l 1047 426 q 922 79 1047 191 q 544 -32 797 -32 m 544 955 q 460 977 498 955 q 400 1036 422 999 q 378 1118 378 1074 q 400 1201 378 1163 q 460 1262 422 1240 q 544 1284 498 1284 q 627 1262 590 1284 q 686 1201 664 1240 q 707 1118 707 1163 q 686 1036 707 1074 q 627 977 664 999 q 544 955 590 955 m 544 1086 q 569 1094 559 1086 q 579 1116 579 1102 q 544 1155 579 1155 q 519 1146 529 1155 q 509 1120 509 1137 q 519 1094 509 1103 q 544 1086 528 1086 z "},"Ű":{"ha":1088,"x_min":41,"x_max":1047,"o":"m 544 -32 q 166 79 291 -32 q 41 424 41 190 l 41 972 l 363 972 l 363 432 q 407 287 363 338 q 544 236 451 236 q 682 287 637 236 q 727 432 727 338 l 727 972 l 1047 972 l 1047 426 q 922 79 1047 191 q 544 -32 797 -32 m 624 1240 l 907 1240 l 824 1037 l 541 1037 l 624 1240 m 292 1240 l 575 1240 l 492 1037 l 208 1037 l 292 1240 z "},"ű":{"ha":1088,"x_min":41,"x_max":1047,"o":"m 544 -32 q 166 79 291 -32 q 41 424 41 190 l 41 972 l 363 972 l 363 432 q 407 287 363 338 q 544 236 451 236 q 682 287 637 236 q 727 432 727 338 l 727 972 l 1047 972 l 1047 426 q 922 79 1047 191 q 544 -32 797 -32 m 624 1240 l 907 1240 l 824 1037 l 541 1037 l 624 1240 m 292 1240 l 575 1240 l 492 1037 l 208 1037 l 292 1240 z "},"Ų":{"ha":1088,"x_min":41,"x_max":1047,"o":"m 1047 972 l 1047 426 q 953 111 1047 222 q 668 -25 859 0 q 581 -41 606 -30 q 556 -69 556 -52 q 567 -95 556 -82 q 615 -108 579 -109 l 615 -281 q 427 -241 510 -281 q 343 -106 343 -201 q 377 -19 343 -51 q 124 124 208 15 q 41 424 41 233 l 41 972 l 363 972 l 363 432 q 407 287 363 338 q 544 236 451 236 q 682 287 637 236 q 727 432 727 338 l 727 972 l 1047 972 z "},"ų":{"ha":1088,"x_min":41,"x_max":1047,"o":"m 1047 972 l 1047 426 q 953 111 1047 222 q 668 -25 859 0 q 581 -41 606 -30 q 556 -69 556 -52 q 567 -95 556 -82 q 615 -108 579 -109 l 615 -281 q 427 -241 510 -281 q 343 -106 343 -201 q 377 -19 343 -51 q 124 124 208 15 q 41 424 41 233 l 41 972 l 363 972 l 363 432 q 407 287 363 338 q 544 236 451 236 q 682 287 637 236 q 727 432 727 338 l 727 972 l 1047 972 z "},"Ŵ":{"ha":1493,"x_min":23,"x_max":1470,"o":"m 23 972 l 348 972 l 453 343 l 480 343 l 619 972 l 874 972 l 1013 343 l 1041 343 l 1145 972 l 1470 972 l 1281 0 l 848 0 l 760 468 l 733 468 l 645 0 l 212 0 l 23 972 m 554 1233 l 941 1233 l 1094 1030 l 829 1030 l 780 1087 l 715 1087 l 667 1030 l 402 1030 l 554 1233 z "},"ŵ":{"ha":1493,"x_min":23,"x_max":1470,"o":"m 23 972 l 348 972 l 453 343 l 480 343 l 619 972 l 874 972 l 1013 343 l 1041 343 l 1145 972 l 1470 972 l 1281 0 l 848 0 l 760 468 l 733 468 l 645 0 l 212 0 l 23 972 m 554 1233 l 941 1233 l 1094 1030 l 829 1030 l 780 1087 l 715 1087 l 667 1030 l 402 1030 l 554 1233 z "},"Ŷ":{"ha":1116,"x_min":0,"x_max":1116,"o":"m 718 302 l 718 0 l 397 0 l 397 303 l 0 972 l 337 972 l 545 606 l 571 606 l 779 972 l 1116 972 l 718 302 m 365 1233 l 751 1233 l 904 1030 l 639 1030 l 590 1087 l 525 1087 l 477 1030 l 212 1030 l 365 1233 z "},"ŷ":{"ha":1116,"x_min":0,"x_max":1116,"o":"m 718 302 l 718 0 l 397 0 l 397 303 l 0 972 l 337 972 l 545 606 l 571 606 l 779 972 l 1116 972 l 718 302 m 365 1233 l 751 1233 l 904 1030 l 639 1030 l 590 1087 l 525 1087 l 477 1030 l 212 1030 l 365 1233 z "},"Ÿ":{"ha":1116,"x_min":0,"x_max":1116,"o":"m 718 302 l 718 0 l 397 0 l 397 303 l 0 972 l 337 972 l 545 606 l 571 606 l 779 972 l 1116 972 l 718 302 m 381 1034 q 298 1065 332 1034 q 264 1145 264 1097 q 298 1224 264 1192 q 381 1256 332 1256 q 464 1224 429 1256 q 498 1145 498 1192 q 464 1065 498 1097 q 381 1034 429 1034 m 734 1034 q 651 1065 685 1034 q 617 1145 617 1097 q 651 1224 617 1192 q 734 1256 685 1256 q 817 1224 782 1256 q 851 1145 851 1192 q 817 1065 851 1097 q 734 1034 782 1034 z "},"Ź":{"ha":961,"x_min":23,"x_max":938,"o":"m 23 258 l 521 681 l 521 705 l 35 705 l 35 972 l 938 972 l 938 714 l 433 292 l 433 267 l 931 267 l 931 0 l 23 0 l 23 258 m 419 1233 l 703 1233 l 619 1030 l 336 1030 l 419 1233 z "},"ź":{"ha":961,"x_min":23,"x_max":938,"o":"m 23 258 l 521 681 l 521 705 l 35 705 l 35 972 l 938 972 l 938 714 l 433 292 l 433 267 l 931 267 l 931 0 l 23 0 l 23 258 m 419 1233 l 703 1233 l 619 1030 l 336 1030 l 419 1233 z "},"Ż":{"ha":961,"x_min":23,"x_max":938,"o":"m 23 258 l 521 681 l 521 705 l 35 705 l 35 972 l 938 972 l 938 714 l 433 292 l 433 267 l 931 267 l 931 0 l 23 0 l 23 258 m 479 1034 q 396 1065 431 1034 q 362 1145 362 1097 q 396 1224 362 1192 q 479 1256 431 1256 q 562 1224 528 1256 q 596 1145 596 1192 q 562 1065 596 1097 q 479 1034 528 1034 z "},"ż":{"ha":961,"x_min":23,"x_max":938,"o":"m 23 258 l 521 681 l 521 705 l 35 705 l 35 972 l 938 972 l 938 714 l 433 292 l 433 267 l 931 267 l 931 0 l 23 0 l 23 258 m 479 1034 q 396 1065 431 1034 q 362 1145 362 1097 q 396 1224 362 1192 q 479 1256 431 1256 q 562 1224 528 1256 q 596 1145 596 1192 q 562 1065 596 1097 q 479 1034 528 1034 z "},"Ž":{"ha":961,"x_min":23,"x_max":938,"o":"m 23 258 l 521 681 l 521 705 l 35 705 l 35 972 l 938 972 l 938 714 l 433 292 l 433 267 l 931 267 l 931 0 l 23 0 l 23 258 m 400 1198 l 449 1141 l 514 1141 l 563 1198 l 828 1198 l 675 995 l 288 995 l 135 1198 l 400 1198 z "},"ž":{"ha":961,"x_min":23,"x_max":938,"o":"m 23 258 l 521 681 l 521 705 l 35 705 l 35 972 l 938 972 l 938 714 l 433 292 l 433 267 l 931 267 l 931 0 l 23 0 l 23 258 m 400 1198 l 449 1141 l 514 1141 l 563 1198 l 828 1198 l 675 995 l 288 995 l 135 1198 l 400 1198 z "},"ƒ":{"ha":888,"x_min":46,"x_max":841,"o":"m 703 782 q 622 759 654 782 q 590 685 590 735 l 590 646 l 841 646 l 841 402 l 590 402 l 590 280 q 498 56 590 130 q 262 -19 406 -19 q 142 -8 201 -19 q 46 25 83 3 l 46 257 q 185 233 110 233 q 266 256 234 233 q 297 330 297 280 l 297 402 l 46 402 l 46 646 l 297 646 l 297 735 q 389 959 297 885 q 626 1034 481 1034 q 745 1023 686 1034 q 841 990 804 1012 l 841 758 q 703 782 778 782 z "},"Ǎ":{"ha":1176,"x_min":6,"x_max":1170,"o":"m 796 128 l 380 128 l 337 0 l 6 0 l 363 972 l 813 972 l 1170 0 l 839 0 l 796 128 m 718 366 l 616 671 l 560 671 l 458 366 l 718 366 m 509 1198 l 558 1141 l 623 1141 l 671 1198 l 936 1198 l 784 995 l 397 995 l 244 1198 l 509 1198 z "},"ǎ":{"ha":1176,"x_min":6,"x_max":1170,"o":"m 796 128 l 380 128 l 337 0 l 6 0 l 363 972 l 813 972 l 1170 0 l 839 0 l 796 128 m 718 366 l 616 671 l 560 671 l 458 366 l 718 366 m 509 1198 l 558 1141 l 623 1141 l 671 1198 l 936 1198 l 784 995 l 397 995 l 244 1198 l 509 1198 z "},"Ǐ":{"ha":402,"x_min":-144,"x_max":549,"o":"m 41 972 l 361 972 l 361 0 l 41 0 l 41 972 m 122 1198 l 170 1141 l 235 1141 l 284 1198 l 549 1198 l 396 995 l 9 995 l -144 1198 l 122 1198 z "},"ǐ":{"ha":402,"x_min":-144,"x_max":549,"o":"m 41 972 l 361 972 l 361 0 l 41 0 l 41 972 m 122 1198 l 170 1141 l 235 1141 l 284 1198 l 549 1198 l 396 995 l 9 995 l -144 1198 l 122 1198 z "},"Ǒ":{"ha":1148,"x_min":23,"x_max":1125,"o":"m 659 1000 q 906 916 801 984 q 1068 738 1012 848 q 1125 486 1125 627 q 1057 215 1125 332 q 865 32 990 97 q 574 -32 740 -32 q 284 32 409 -32 q 91 215 159 97 q 23 486 23 332 q 80 738 23 627 q 242 916 137 848 q 490 1000 347 984 l 383 1000 l 230 1203 l 495 1203 l 544 1146 l 609 1146 l 657 1203 l 922 1203 l 770 1000 l 659 1000 m 574 244 q 692 273 639 244 q 775 356 744 302 q 807 486 807 411 q 775 616 807 561 q 692 699 744 670 q 574 728 639 728 q 457 699 509 728 q 373 616 404 670 q 341 486 341 561 q 373 356 341 411 q 457 273 404 302 q 574 244 509 244 z "},"ǒ":{"ha":1148,"x_min":23,"x_max":1125,"o":"m 659 1000 q 906 916 801 984 q 1068 738 1012 848 q 1125 486 1125 627 q 1057 215 1125 332 q 865 32 990 97 q 574 -32 740 -32 q 284 32 409 -32 q 91 215 159 97 q 23 486 23 332 q 80 738 23 627 q 242 916 137 848 q 490 1000 347 984 l 383 1000 l 230 1203 l 495 1203 l 544 1146 l 609 1146 l 657 1203 l 922 1203 l 770 1000 l 659 1000 m 574 244 q 692 273 639 244 q 775 356 744 302 q 807 486 807 411 q 775 616 807 561 q 692 699 744 670 q 574 728 639 728 q 457 699 509 728 q 373 616 404 670 q 341 486 341 561 q 373 356 341 411 q 457 273 404 302 q 574 244 509 244 z "},"Ǔ":{"ha":1088,"x_min":41,"x_max":1047,"o":"m 544 -32 q 166 79 291 -32 q 41 424 41 190 l 41 972 l 363 972 l 363 432 q 407 287 363 338 q 544 236 451 236 q 682 287 637 236 q 727 432 727 338 l 727 972 l 1047 972 l 1047 426 q 922 79 1047 191 q 544 -32 797 -32 m 465 1198 l 514 1141 l 579 1141 l 627 1198 l 892 1198 l 740 995 l 353 995 l 200 1198 l 465 1198 z "},"ǔ":{"ha":1088,"x_min":41,"x_max":1047,"o":"m 544 -32 q 166 79 291 -32 q 41 424 41 190 l 41 972 l 363 972 l 363 432 q 407 287 363 338 q 544 236 451 236 q 682 287 637 236 q 727 432 727 338 l 727 972 l 1047 972 l 1047 426 q 922 79 1047 191 q 544 -32 797 -32 m 465 1198 l 514 1141 l 579 1141 l 627 1198 l 892 1198 l 740 995 l 353 995 l 200 1198 l 465 1198 z "},"Ǫ":{"ha":1148,"x_min":23,"x_max":1125,"o":"m 1125 486 q 1072 242 1125 351 q 920 65 1019 134 q 689 -24 822 -3 q 677 -56 677 -36 q 736 -105 677 -106 l 736 -279 q 548 -238 632 -279 q 464 -101 464 -198 q 481 -27 464 -58 q 238 59 341 -9 q 79 237 135 127 q 23 486 23 347 q 91 758 23 640 q 284 940 159 875 q 574 1005 409 1005 q 865 940 740 1005 q 1057 758 990 875 q 1125 486 1125 640 m 341 486 q 373 356 341 411 q 457 273 404 302 q 574 244 509 244 q 692 273 639 244 q 775 356 744 302 q 807 486 807 411 q 775 616 807 561 q 692 699 744 670 q 574 728 639 728 q 457 699 509 728 q 373 616 404 670 q 341 486 341 561 z "},"Ș":{"ha":1022,"x_min":12,"x_max":1001,"o":"m 509 -32 q 131 52 251 -32 q 17 325 12 137 l 306 325 q 356 245 308 273 q 509 218 405 218 q 639 240 595 218 q 683 296 683 262 q 659 344 683 324 q 571 374 635 365 l 446 394 l 418 398 q 222 440 297 417 q 94 524 147 464 q 41 694 41 584 q 159 923 41 841 q 506 1005 278 1005 q 856 925 734 1005 q 973 649 978 845 l 688 649 q 499 755 669 755 q 385 734 422 755 q 348 678 348 713 q 369 633 348 653 q 440 605 389 613 l 543 588 l 609 578 q 812 536 734 559 q 946 453 890 513 q 1001 284 1001 394 q 509 -32 1001 -32 m 449 -544 q 462 -307 464 -434 l 353 -307 l 353 -76 l 678 -76 l 678 -127 q 660 -394 678 -285 q 618 -544 641 -502 l 449 -544 z "},"ș":{"ha":1022,"x_min":12,"x_max":1001,"o":"m 509 -32 q 131 52 251 -32 q 17 325 12 137 l 306 325 q 356 245 308 273 q 509 218 405 218 q 639 240 595 218 q 683 296 683 262 q 659 344 683 324 q 571 374 635 365 l 446 394 l 418 398 q 222 440 297 417 q 94 524 147 464 q 41 694 41 584 q 159 923 41 841 q 506 1005 278 1005 q 856 925 734 1005 q 973 649 978 845 l 688 649 q 499 755 669 755 q 385 734 422 755 q 348 678 348 713 q 369 633 348 653 q 440 605 389 613 l 543 588 l 609 578 q 812 536 734 559 q 946 453 890 513 q 1001 284 1001 394 q 509 -32 1001 -32 m 449 -544 q 462 -307 464 -434 l 353 -307 l 353 -76 l 678 -76 l 678 -127 q 660 -394 678 -285 q 618 -544 641 -502 l 449 -544 z "},"Ț":{"ha":1089,"x_min":35,"x_max":1054,"o":"m 1054 705 l 705 705 l 705 0 l 384 0 l 384 705 l 35 705 l 35 972 l 1054 972 l 1054 705 m 480 -544 q 493 -307 495 -434 l 384 -307 l 384 -76 l 709 -76 l 709 -127 q 691 -394 709 -285 q 649 -544 672 -502 l 480 -544 z "},"ț":{"ha":1089,"x_min":35,"x_max":1054,"o":"m 1054 705 l 705 705 l 705 0 l 384 0 l 384 705 l 35 705 l 35 972 l 1054 972 l 1054 705 m 480 -544 q 493 -307 495 -434 l 384 -307 l 384 -76 l 709 -76 l 709 -127 q 691 -394 709 -285 q 649 -544 672 -502 l 480 -544 z "},"ˆ":{"ha":692,"x_min":0,"x_max":692,"o":"m 153 990 l 539 990 l 692 787 l 427 787 l 378 844 l 314 844 l 265 787 l 0 787 l 153 990 z "},"ˇ":{"ha":692,"x_min":0,"x_max":692,"o":"m 265 955 l 314 898 l 378 898 l 427 955 l 692 955 l 539 752 l 153 752 l 0 955 l 265 955 z "},"˘":{"ha":537,"x_min":-2,"x_max":539,"o":"m 269 787 q 107 806 166 787 q 23 869 49 825 q 0 990 -2 913 l 192 990 q 211 935 191 954 q 269 917 231 917 q 326 935 306 917 q 345 990 346 954 l 537 990 q 514 869 539 913 q 430 806 488 825 q 269 787 372 787 z "},"˙":{"ha":234,"x_min":0,"x_max":234,"o":"m 117 791 q 34 822 68 791 q 0 902 0 854 q 34 981 0 949 q 117 1013 68 1013 q 200 981 166 1013 q 234 902 234 949 q 200 822 234 854 q 117 791 166 791 z "},"˚":{"ha":329,"x_min":0,"x_max":329,"o":"m 166 712 q 82 734 119 712 q 22 793 44 756 q 0 875 0 831 q 22 958 0 920 q 82 1019 44 997 q 166 1041 119 1041 q 249 1019 212 1041 q 307 958 286 997 q 329 875 329 920 q 307 793 329 831 q 249 734 286 756 q 166 712 212 712 m 166 843 q 190 851 181 843 q 200 873 200 859 q 166 912 200 912 q 141 903 150 912 q 131 877 131 894 q 140 851 131 860 q 166 843 149 843 z "},"˛":{"ha":303,"x_min":0,"x_max":303,"o":"m 272 -281 q 84 -241 168 -281 q 0 -103 0 -200 q 97 44 0 8 q 303 80 193 80 l 303 0 q 233 -17 253 0 q 213 -58 213 -35 q 272 -108 213 -109 l 272 -281 z "},"˜":{"ha":569,"x_min":-1,"x_max":571,"o":"m 388 785 q 327 794 354 785 q 262 821 300 803 q 207 844 229 837 q 161 852 185 852 q 111 837 130 852 q 89 796 91 823 l 2 796 q -1 834 -1 817 q 53 957 -1 916 q 182 999 106 999 q 241 990 214 999 q 307 963 269 980 q 363 939 341 947 q 409 932 384 932 q 459 946 440 932 q 480 987 478 961 l 567 987 q 571 949 571 966 q 517 826 571 868 q 388 785 463 785 z "},"˝":{"ha":671,"x_min":0,"x_max":699,"o":"m 416 990 l 699 990 l 616 787 l 332 787 l 416 990 m 83 990 l 367 990 l 284 787 l 0 787 l 83 990 z "},"̦":{"ha":0,"x_min":-334,"x_max":-9,"o":"m -238 -544 q -226 -307 -223 -434 l -334 -307 l -334 -76 l -9 -76 l -9 -127 q -28 -394 -9 -285 q -69 -544 -46 -502 l -238 -544 z "},"Δ":{"ha":1176,"x_min":6,"x_max":1170,"o":"m 1170 0 l 6 0 l 363 972 l 813 972 l 1170 0 m 750 257 l 605 671 l 571 671 l 426 257 l 750 257 z "},"Ω":{"ha":1104,"x_min":23,"x_max":1081,"o":"m 23 247 l 156 247 l 156 277 q 65 409 98 330 q 32 579 32 488 q 95 795 32 698 q 276 948 159 891 q 552 1005 394 1005 q 828 948 711 1005 q 1009 795 946 891 q 1072 579 1072 698 q 1039 409 1072 488 q 948 277 1006 330 l 948 247 l 1081 247 l 1081 0 l 606 0 l 606 344 q 709 409 667 362 q 752 537 752 456 q 728 630 752 586 q 659 701 704 674 q 552 728 613 728 q 446 701 491 728 q 376 630 400 674 q 352 537 352 586 q 395 409 352 456 q 498 344 438 362 l 498 0 l 23 0 l 23 247 z "},"μ":{"ha":958,"x_min":41,"x_max":918,"o":"m 918 787 l 918 0 l 603 0 l 597 103 l 567 103 q 476 19 531 49 q 361 -16 420 -10 l 361 -174 l 41 -174 l 41 787 l 361 787 l 361 353 q 398 263 361 286 q 480 240 434 240 q 565 270 534 240 q 597 340 597 300 l 597 787 l 918 787 z "},"π":{"ha":1146,"x_min":41,"x_max":1105,"o":"m 1044 259 q 1080 264 1059 259 q 1105 266 1097 269 l 1105 47 q 1030 4 1081 17 q 920 -9 979 -9 q 731 49 800 -9 q 662 247 662 106 l 662 560 l 458 560 l 458 0 l 138 0 l 138 560 l 41 560 l 41 787 l 1079 787 l 1079 560 l 983 560 l 983 310 q 1044 259 983 259 z "},"Ẁ":{"ha":1493,"x_min":23,"x_max":1470,"o":"m 23 972 l 348 972 l 453 343 l 480 343 l 619 972 l 874 972 l 1013 343 l 1041 343 l 1145 972 l 1470 972 l 1281 0 l 848 0 l 760 468 l 733 468 l 645 0 l 212 0 l 23 972 m 609 1030 l 525 1233 l 809 1233 l 892 1030 l 609 1030 z "},"ẁ":{"ha":1493,"x_min":23,"x_max":1470,"o":"m 23 972 l 348 972 l 453 343 l 480 343 l 619 972 l 874 972 l 1013 343 l 1041 343 l 1145 972 l 1470 972 l 1281 0 l 848 0 l 760 468 l 733 468 l 645 0 l 212 0 l 23 972 m 609 1030 l 525 1233 l 809 1233 l 892 1030 l 609 1030 z "},"Ẃ":{"ha":1493,"x_min":23,"x_max":1470,"o":"m 23 972 l 348 972 l 453 343 l 480 343 l 619 972 l 874 972 l 1013 343 l 1041 343 l 1145 972 l 1470 972 l 1281 0 l 848 0 l 760 468 l 733 468 l 645 0 l 212 0 l 23 972 m 688 1233 l 971 1233 l 888 1030 l 604 1030 l 688 1233 z "},"ẃ":{"ha":1493,"x_min":23,"x_max":1470,"o":"m 23 972 l 348 972 l 453 343 l 480 343 l 619 972 l 874 972 l 1013 343 l 1041 343 l 1145 972 l 1470 972 l 1281 0 l 848 0 l 760 468 l 733 468 l 645 0 l 212 0 l 23 972 m 688 1233 l 971 1233 l 888 1030 l 604 1030 l 688 1233 z "},"Ẅ":{"ha":1493,"x_min":23,"x_max":1470,"o":"m 23 972 l 348 972 l 453 343 l 480 343 l 619 972 l 874 972 l 1013 343 l 1041 343 l 1145 972 l 1470 972 l 1281 0 l 848 0 l 760 468 l 733 468 l 645 0 l 212 0 l 23 972 m 571 1034 q 488 1065 522 1034 q 454 1145 454 1097 q 488 1224 454 1192 q 571 1256 522 1256 q 653 1224 619 1256 q 688 1145 688 1192 q 653 1065 688 1097 q 571 1034 619 1034 m 924 1034 q 841 1065 875 1034 q 807 1145 807 1097 q 841 1224 807 1192 q 924 1256 875 1256 q 1006 1224 972 1256 q 1041 1145 1041 1192 q 1006 1065 1041 1097 q 924 1034 972 1034 z "},"ẅ":{"ha":1493,"x_min":23,"x_max":1470,"o":"m 23 972 l 348 972 l 453 343 l 480 343 l 619 972 l 874 972 l 1013 343 l 1041 343 l 1145 972 l 1470 972 l 1281 0 l 848 0 l 760 468 l 733 468 l 645 0 l 212 0 l 23 972 m 571 1034 q 488 1065 522 1034 q 454 1145 454 1097 q 488 1224 454 1192 q 571 1256 522 1256 q 653 1224 619 1256 q 688 1145 688 1192 q 653 1065 688 1097 q 571 1034 619 1034 m 924 1034 q 841 1065 875 1034 q 807 1145 807 1097 q 841 1224 807 1192 q 924 1256 875 1256 q 1006 1224 972 1256 q 1041 1145 1041 1192 q 1006 1065 1041 1097 q 924 1034 972 1034 z "},"ẞ":{"ha":1168,"x_min":41,"x_max":1145,"o":"m 848 582 q 1008 541 941 583 q 1110 427 1075 498 q 1145 279 1145 356 q 1049 53 1145 132 q 779 -25 953 -25 q 499 49 582 -25 q 416 265 416 123 l 677 265 q 712 205 681 226 q 774 185 743 185 q 843 209 814 185 q 872 279 872 233 q 843 348 872 322 q 774 375 815 375 q 699 346 728 375 l 440 346 l 648 705 l 472 705 q 394 677 421 705 q 366 586 366 649 l 366 0 l 41 0 l 41 655 q 81 850 41 780 q 200 946 122 919 q 404 972 278 972 l 1096 972 l 848 582 z "},"Ỳ":{"ha":1116,"x_min":0,"x_max":1116,"o":"m 718 302 l 718 0 l 397 0 l 397 303 l 0 972 l 337 972 l 545 606 l 571 606 l 779 972 l 1116 972 l 718 302 m 419 1030 l 336 1233 l 619 1233 l 703 1030 l 419 1030 z "},"ỳ":{"ha":1116,"x_min":0,"x_max":1116,"o":"m 718 302 l 718 0 l 397 0 l 397 303 l 0 972 l 337 972 l 545 606 l 571 606 l 779 972 l 1116 972 l 718 302 m 419 1030 l 336 1233 l 619 1233 l 703 1030 l 419 1030 z "},"–":{"ha":1042,"x_min":46,"x_max":995,"o":"m 46 598 l 995 598 l 995 331 l 46 331 l 46 598 z "},"—":{"ha":1134,"x_min":46,"x_max":1088,"o":"m 46 598 l 1088 598 l 1088 331 l 46 331 l 46 598 z "},"‘":{"ha":447,"x_min":35,"x_max":412,"o":"m 301 972 q 286 697 284 851 l 412 697 l 412 429 l 35 429 l 35 488 q 56 796 35 670 q 104 972 78 922 l 301 972 z "},"’":{"ha":447,"x_min":35,"x_max":412,"o":"m 146 429 q 161 705 163 551 l 35 705 l 35 972 l 412 972 l 412 913 q 391 605 412 731 q 343 429 369 479 l 146 429 z "},"‚":{"ha":447,"x_min":35,"x_max":412,"o":"m 146 -275 q 161 0 163 -154 l 35 0 l 35 267 l 412 267 l 412 208 q 391 -100 412 27 q 343 -275 369 -226 l 146 -275 z "},"“":{"ha":799,"x_min":39,"x_max":763,"o":"m 275 972 q 262 697 262 866 l 374 697 l 374 429 l 39 429 l 39 488 q 58 796 39 670 q 101 972 78 922 l 275 972 m 664 972 q 650 697 650 866 l 763 697 l 763 429 l 428 429 l 428 488 q 447 796 428 670 q 490 972 466 922 l 664 972 z "},"”":{"ha":799,"x_min":36,"x_max":759,"o":"m 134 429 q 148 705 148 536 l 36 705 l 36 972 l 370 972 l 370 913 q 351 605 370 731 q 309 429 332 479 l 134 429 m 523 429 q 537 705 537 536 l 425 705 l 425 972 l 759 972 l 759 913 q 740 605 759 731 q 698 429 721 479 l 523 429 z "},"„":{"ha":799,"x_min":36,"x_max":759,"o":"m 134 -318 q 148 -43 148 -212 l 36 -43 l 36 225 l 370 225 l 370 166 q 351 -142 370 -16 q 309 -318 332 -269 l 134 -318 m 523 -318 q 537 -43 537 -212 l 425 -43 l 425 225 l 759 225 l 759 166 q 740 -142 759 -16 q 698 -318 721 -269 l 523 -318 z "},"†":{"ha":935,"x_min":58,"x_max":877,"o":"m 877 553 l 601 553 l 601 278 l 333 278 l 333 553 l 58 553 l 58 807 l 333 807 l 333 1083 l 601 1083 l 601 807 l 877 807 l 877 553 z "},"‡":{"ha":935,"x_min":58,"x_max":877,"o":"m 601 553 l 601 314 l 877 314 l 877 60 l 601 60 l 601 -215 l 333 -215 l 333 60 l 58 60 l 58 314 l 333 314 l 333 553 l 58 553 l 58 807 l 333 807 l 333 1083 l 601 1083 l 601 807 l 877 807 l 877 553 l 601 553 z "},"•":{"ha":718,"x_min":116,"x_max":602,"o":"m 359 242 q 238 275 294 242 q 149 364 182 308 q 116 486 116 420 q 149 608 116 552 q 238 697 182 664 q 359 730 294 730 q 480 697 424 730 q 569 608 536 664 q 602 486 602 552 q 569 364 602 420 q 480 275 536 308 q 359 242 424 242 z "},"…":{"ha":1231,"x_min":41,"x_max":1191,"o":"m 200 -19 q 121 3 157 -19 q 63 61 84 24 q 41 139 41 97 q 63 217 41 181 q 121 275 84 253 q 200 296 157 296 q 280 275 243 296 q 338 217 316 253 q 360 139 360 181 q 338 61 360 97 q 280 3 316 24 q 200 -19 243 -19 m 616 -19 q 536 3 573 -19 q 478 61 500 24 q 456 139 456 97 q 478 217 456 181 q 536 275 500 253 q 616 296 573 296 q 695 275 659 296 q 753 217 731 253 q 775 139 775 181 q 753 61 775 97 q 695 3 731 24 q 616 -19 659 -19 m 1031 -19 q 952 3 988 -19 q 894 61 916 24 q 872 139 872 97 q 894 217 872 181 q 952 275 916 253 q 1031 296 988 296 q 1111 275 1074 296 q 1169 217 1147 253 q 1191 139 1191 181 q 1169 61 1191 97 q 1111 3 1147 24 q 1031 -19 1074 -19 z "},"‰":{"ha":1922,"x_min":52,"x_max":1869,"o":"m 294 57 l 921 1012 l 1056 921 l 428 -34 l 294 57 m 316 469 q 118 542 184 469 q 52 728 52 615 q 118 913 52 840 q 316 986 184 986 q 514 913 448 986 q 580 728 580 840 q 514 542 580 615 q 316 469 448 469 m 316 666 q 363 684 347 666 q 378 728 378 703 q 363 771 378 753 q 316 789 347 789 q 269 771 285 789 q 253 728 253 753 q 269 684 253 703 q 316 666 285 666 m 1032 -14 q 834 59 900 -14 q 769 245 769 132 q 834 431 769 358 q 1032 503 900 503 q 1230 431 1164 503 q 1296 245 1296 358 q 1230 59 1296 132 q 1032 -14 1164 -14 m 1605 -14 q 1407 59 1473 -14 q 1341 245 1341 132 q 1407 431 1341 358 q 1605 503 1473 503 q 1803 431 1737 503 q 1869 245 1869 358 q 1803 59 1869 132 q 1605 -14 1737 -14 m 1032 183 q 1079 201 1064 183 q 1095 245 1095 220 q 1079 289 1095 271 q 1032 307 1064 307 q 986 289 1001 307 q 970 245 970 271 q 986 201 970 220 q 1032 183 1001 183 m 1605 183 q 1652 201 1637 183 q 1668 245 1668 220 q 1652 289 1668 271 q 1605 307 1637 307 q 1558 289 1574 307 q 1543 245 1543 271 q 1558 201 1543 220 q 1605 183 1574 183 z "},"‹":{"ha":694,"x_min":69,"x_max":625,"o":"m 294 139 l 69 486 l 294 833 l 625 833 l 400 486 l 625 139 l 294 139 z "},"›":{"ha":694,"x_min":69,"x_max":625,"o":"m 294 486 l 69 833 l 400 833 l 625 486 l 400 139 l 69 139 l 294 486 z "},"€":{"ha":1125,"x_min":23,"x_max":1101,"o":"m 613 244 q 741 284 690 244 q 810 403 792 323 l 1101 403 q 943 70 1080 172 q 613 -32 807 -32 q 377 14 483 -32 q 202 148 272 61 q 106 352 132 235 l 23 352 l 23 456 l 94 456 q 93 486 93 466 l 93 500 l 23 500 l 23 603 l 103 603 q 195 816 126 726 q 372 955 264 906 q 613 1005 479 1005 q 840 963 736 1005 q 1016 825 944 921 q 1101 572 1087 728 l 810 572 q 741 689 792 650 q 613 728 690 728 q 498 695 549 728 q 420 603 447 662 l 610 603 l 610 500 l 396 500 l 396 486 q 397 456 396 465 l 610 456 l 610 352 l 428 352 q 506 273 457 301 q 613 244 554 244 z "},"№":{"ha":1402,"x_min":41,"x_max":1378,"o":"m 1106 439 q 967 475 1029 439 q 870 572 905 510 q 834 709 834 634 q 870 845 834 784 q 967 943 905 907 q 1106 979 1029 979 q 1246 943 1184 979 q 1343 845 1308 907 q 1378 709 1378 784 q 1343 572 1378 634 q 1246 475 1308 510 q 1106 439 1184 439 m 41 972 l 291 972 l 468 550 l 495 550 l 495 972 l 775 972 l 775 0 l 525 0 l 348 422 l 321 422 l 321 0 l 41 0 l 41 972 m 1106 637 q 1159 657 1139 637 q 1179 709 1179 678 q 1159 761 1179 741 q 1106 781 1139 781 q 1054 761 1075 781 q 1034 709 1034 741 q 1054 657 1034 678 q 1106 637 1074 637 m 856 344 l 1356 344 l 1356 90 l 856 90 l 856 344 z "},"™":{"ha":995,"x_min":35,"x_max":961,"o":"m 961 972 l 961 532 l 825 532 l 825 781 l 809 781 l 773 532 l 637 532 l 601 781 l 584 781 l 584 532 l 449 532 l 449 848 l 330 848 l 330 532 l 181 532 l 181 848 l 35 848 l 35 972 l 646 972 l 694 676 l 715 676 l 764 972 l 961 972 z "},"∂":{"ha":951,"x_min":23,"x_max":928,"o":"m 455 998 q 797 877 667 998 q 928 491 928 757 q 825 115 928 255 q 466 -25 721 -25 q 222 16 322 -25 q 73 134 123 58 q 23 313 23 209 q 131 546 23 469 q 412 623 240 623 q 627 583 554 623 q 581 721 631 683 q 455 759 531 759 q 350 739 394 759 q 297 674 307 719 l 43 674 q 149 916 38 834 q 455 998 259 998 m 470 211 q 585 241 545 211 q 625 321 625 272 q 586 400 625 373 q 470 428 546 428 q 352 399 394 428 q 311 321 311 370 q 353 241 311 272 q 470 211 395 211 z "},"∏":{"ha":848,"x_min":41,"x_max":808,"o":"m 808 1042 l 808 -174 l 487 -174 l 487 774 l 361 774 l 361 -174 l 41 -174 l 41 1042 l 808 1042 z "},"∑":{"ha":831,"x_min":41,"x_max":791,"o":"m 41 94 l 406 424 l 41 774 l 41 1042 l 791 1042 l 791 774 l 392 774 l 744 440 l 744 407 l 392 94 l 791 94 l 791 -174 l 41 -174 l 41 94 z "},"−":{"ha":843,"x_min":58,"x_max":785,"o":"m 58 620 l 785 620 l 785 353 l 58 353 l 58 620 z "},"√":{"ha":991,"x_min":58,"x_max":933,"o":"m 201 304 l 58 304 l 58 572 l 382 572 l 501 126 l 520 126 l 678 1042 l 933 1042 l 706 -174 l 330 -174 l 201 304 z "},"∞":{"ha":1000,"x_min":58,"x_max":942,"o":"m 722 735 q 887 664 832 735 q 942 487 942 594 q 888 306 942 376 q 722 236 833 236 q 598 270 648 236 q 500 369 547 304 q 402 270 453 304 q 279 236 352 236 q 113 306 168 236 q 58 487 58 376 q 113 664 58 594 q 279 735 168 735 q 402 700 352 735 q 500 601 451 666 q 599 701 549 667 q 722 735 649 735 m 309 420 q 358 433 334 420 q 419 488 382 447 q 357 541 381 528 q 309 554 333 554 q 260 534 275 554 q 245 488 245 514 q 260 440 245 459 q 309 420 275 420 m 691 420 q 740 440 725 420 q 755 488 755 459 q 740 534 755 514 q 691 554 725 554 q 644 541 667 554 q 583 488 620 528 q 643 433 620 447 q 691 420 666 420 z "},"∫":{"ha":934,"x_min":69,"x_max":865,"o":"m 285 -174 q 166 -163 225 -174 q 69 -130 106 -152 l 69 102 q 208 78 133 78 q 289 101 257 78 q 321 175 321 125 l 321 735 q 413 959 321 885 q 649 1034 505 1034 q 769 1023 709 1034 q 865 990 828 1012 l 865 758 q 726 782 801 782 q 645 759 677 782 q 613 685 613 735 l 613 125 q 521 -100 613 -25 q 285 -174 429 -174 z "},"≈":{"ha":826,"x_min":57,"x_max":770,"o":"m 542 203 q 466 215 501 204 q 384 249 431 227 q 314 278 341 269 q 257 287 287 287 q 194 269 218 287 q 169 218 171 250 l 60 218 q 57 265 57 244 q 89 380 57 333 q 172 448 120 426 q 285 471 225 471 q 359 460 325 471 q 442 426 394 449 q 510 397 483 406 q 567 387 538 388 q 630 407 606 389 q 657 456 654 425 l 766 456 q 770 409 770 432 q 737 295 770 341 q 653 226 705 249 q 542 203 601 204 m 542 499 q 466 512 501 500 q 384 545 431 523 q 314 574 341 565 q 257 583 287 583 q 194 565 218 583 q 169 514 171 546 l 60 514 q 57 561 57 541 q 89 676 57 630 q 172 745 120 722 q 285 767 225 767 q 359 756 325 767 q 442 722 394 745 q 510 693 483 703 q 567 683 538 684 q 630 703 606 685 q 657 752 654 721 l 766 752 q 770 705 770 728 q 737 591 770 638 q 653 523 705 545 q 542 499 601 500 z "},"≠":{"ha":843,"x_min":51,"x_max":792,"o":"m 709 785 l 785 785 l 785 517 l 590 517 l 564 456 l 785 456 l 785 189 l 444 189 l 382 47 l 51 47 l 113 189 l 58 189 l 58 456 l 233 456 l 259 517 l 58 517 l 58 785 l 378 785 l 461 971 l 792 971 l 709 785 z "},"≤":{"ha":843,"x_min":57,"x_max":785,"o":"m 57 563 l 57 928 l 781 1155 l 781 881 l 303 760 l 303 730 l 781 610 l 781 340 l 57 563 m 58 267 l 785 267 l 785 0 l 58 0 l 58 267 z "},"≥":{"ha":888,"x_min":103,"x_max":831,"o":"m 106 610 l 584 730 l 584 760 l 106 881 l 106 1155 l 831 928 l 831 563 l 106 340 l 106 610 m 103 0 l 103 267 l 830 267 l 830 0 l 103 0 z "},"◊":{"ha":903,"x_min":58,"x_max":845,"o":"m 289 0 q 266 15 271 0 l 63 472 q 58 486 58 484 q 63 500 58 488 l 266 957 q 289 972 271 972 l 613 972 q 637 957 632 972 l 840 500 q 845 486 845 492 q 840 472 845 480 l 637 15 q 613 0 632 0 l 289 0 m 565 486 l 451 748 l 338 486 l 451 225 l 565 486 z "}}}
